<svg width="800" height="600" viewBox="0 0 800 600" fill="none" xmlns="http://www.w3.org/2000/svg">
<mask id="mask0_100_2" style="mask-type:alpha" maskUnits="userSpaceOnUse" x="0" y="0" width="800" height="600">
<rect opacity="0.9" width="800" height="600" fill="#D9D9D9"/>
</mask>
<g mask="url(#mask0_100_2)">
<path opacity="0.25" d="M864.75 -29H771.833H678.917H586H493.083H400.167H307H214.083H121.083H28.1667H-64.8333C-67.1667 -29 -69 -27.1667 -69 -24.8333V68.0833V161V253.917V346.833V439.75V532.667V625.583C-69 627.917 -67.1667 629.75 -64.8333 629.75H28.0833H121H213.917H307H399.917H492.833H585.75H678.667H771.583H864.5C866.833 629.75 868.667 627.917 868.667 625.583V532.917V439.917V347V254V161.083V68.0833V-24.8333C868.917 -27.1667 867.083 -29 864.75 -29ZM860.583 156.917H776V72.25H860.583V156.917ZM860.583 249.833H776V165.25H860.583V249.833ZM860.583 342.833H776V258.167H860.583V342.833ZM860.583 435.75H776V351.167H860.583V435.75ZM-60.6667 351.167H23.9167V435.75H-60.6667V351.167ZM-60.6667 258.167H23.9167V342.75H-60.6667V258.167ZM-60.6667 165.25H23.9167V249.833H-60.6667V165.25ZM32.3334 258.167H116.917V342.75H32.3334V258.167ZM125.25 258.167H209.833V342.75H125.25V258.167ZM218.25 258.167H302.833V342.75H218.25V258.167ZM311.167 258.167H395.75V342.75H311.167V258.167ZM404.167 258.167H488.75V342.75H404.167V258.167ZM497.083 258.167H581.667V342.75H497.083V258.167ZM590.083 258.167H674.667V342.75H590.083V258.167ZM683 258.167H767.583V342.75H683V258.167ZM767.667 249.833H683.083V165.25H767.667V249.833ZM674.667 249.833H590.083V165.25H674.667V249.833ZM581.75 249.833H497.167V165.25H581.75V249.833ZM488.75 249.833H404.167V165.25H488.75V249.833ZM395.833 249.833H311.167V165.25H395.75L395.833 249.833ZM302.833 249.833H218.25V165.25H302.833V249.833ZM209.917 249.833H125.25V165.25H209.833L209.917 249.833ZM116.917 249.833H32.3334V165.25H116.917V249.833ZM32.3334 351.167H116.917V435.75H32.3334V351.167ZM125.25 351.167H209.833V435.75H125.25V351.167ZM218.25 351.167H302.833V435.75H218.25V351.167ZM311.167 351.167H395.75V435.75H311.167V351.167ZM404.167 351.167H488.75V435.75H404.167V351.167ZM497.083 351.167H581.667V435.75H497.083V351.167ZM590.083 351.167H674.667V435.75H590.083V351.167ZM683 351.167H767.583V435.75H683V351.167ZM767.667 156.917H683.083V72.25H767.667V156.917ZM674.667 156.917H590.083V72.25H674.667V156.917ZM581.75 156.917H497.167V72.25H581.75V156.917ZM488.75 156.917H404.167V72.25H488.75V156.917ZM395.833 156.917H311.167V72.25H395.75L395.833 156.917ZM302.833 156.917H218.25V72.25H302.833V156.917ZM209.917 156.917H125.25V72.25H209.833L209.917 156.917ZM116.917 156.917H32.3334V72.25H116.917V156.917ZM24 156.917H-60.6667V72.25H23.9167V156.917H24ZM-60.6667 444.083H23.9167V528.667H-60.6667V444.083ZM32.3334 444.083H116.917V528.667H32.3334V444.083ZM125.25 444.083H209.833V528.667H125.25V444.083ZM218.25 444.083H302.833V528.667H218.25V444.083ZM311.167 444.083H395.75V528.667H311.167V444.083ZM404.167 444.083H488.75V528.667H404.167V444.083ZM497.083 444.083H581.667V528.667H497.083V444.083ZM590.083 444.083H674.667V528.667H590.083V444.083ZM683 444.083H767.583V528.667H683V444.083ZM776 444.083H860.583V528.667H776V444.083ZM860.583 63.9167H776V-20.6667H860.583V63.9167ZM767.667 63.9167H683.083V-20.6667H767.667V63.9167ZM674.667 63.9167H590.083V-20.6667H674.667V63.9167ZM581.75 63.9167H497.167V-20.6667H581.75V63.9167ZM488.75 63.9167H404.167V-20.6667H488.75V63.9167ZM395.833 63.9167H311.167V-20.6667H395.75L395.833 63.9167ZM302.833 63.9167H218.25V-20.6667H302.833V63.9167ZM209.917 63.9167H125.25V-20.6667H209.833L209.917 63.9167ZM116.917 63.9167H32.3334V-20.6667H116.917V63.9167ZM-60.6667 -20.6667H23.9167V63.9167H-60.6667V-20.6667ZM-60.6667 537.083H23.9167V621.667H-60.6667V537.083ZM32.3334 537.083H116.917V621.667H32.3334V537.083ZM125.25 537.083H209.833V621.667H125.25V537.083ZM218.25 537.083H302.833V621.667H218.25V537.083ZM311.167 537.083H395.75V621.667H311.167V537.083ZM404.167 537.083H488.75V621.667H404.167V537.083ZM497.083 537.083H581.667V621.667H497.083V537.083ZM590.083 537.083H674.667V621.667H590.083V537.083ZM683 537.083H767.583V621.667H683V537.083ZM860.583 621.667H776V537.083H860.583V621.667Z" fill="#B3D6C5"/>
</g>
<path d="M461.147 503.945L303.664 494.248C300.893 494.097 298.186 493.357 295.723 492.077C293.261 490.797 291.1 489.006 289.385 486.824C287.67 484.643 286.439 482.12 285.776 479.425C285.113 476.731 285.032 473.925 285.54 471.197L345.547 134.922C346.569 129.319 349.38 124.198 353.558 120.328C357.736 116.458 363.056 114.046 368.721 113.456L526.912 98.1488C529.917 97.8579 532.949 98.2616 535.773 99.3287C538.597 100.396 541.138 102.098 543.2 104.303C545.262 106.509 546.789 109.159 547.663 112.049C548.538 114.938 548.737 117.99 548.244 120.969L488.48 481.991C487.496 488.406 484.143 494.219 479.083 498.283C474.023 502.348 467.624 504.368 461.147 503.945Z" fill="#9A9CE4"/>
<path d="M452.524 502.872L295.028 493.187C292.257 493.036 289.55 492.296 287.088 491.016C284.625 489.736 282.464 487.945 280.749 485.763C279.034 483.582 277.804 481.059 277.14 478.364C276.477 475.669 276.397 472.864 276.904 470.136L336.911 133.861C337.933 128.258 340.744 123.137 344.922 119.267C349.1 115.397 354.421 112.985 360.085 112.395L518.325 97.0877C521.333 96.8031 524.365 97.2136 527.189 98.2876C530.013 99.3616 532.552 101.07 534.61 103.282C536.668 105.493 538.19 108.148 539.059 111.041C539.928 113.935 540.12 116.989 539.62 119.969L479.857 481.052C478.811 487.428 475.437 493.189 470.388 497.22C465.339 501.251 458.973 503.265 452.524 502.872Z" fill="#CDCEFF"/>
<mask id="mask1_100_2" style="mask-type:luminance" maskUnits="userSpaceOnUse" x="276" y="97" width="264" height="406">
<path d="M452.524 502.872L295.028 493.187C292.257 493.036 289.55 492.296 287.088 491.016C284.625 489.736 282.464 487.945 280.749 485.763C279.034 483.582 277.804 481.059 277.14 478.364C276.477 475.669 276.397 472.864 276.904 470.136L336.911 133.861C337.933 128.258 340.744 123.137 344.922 119.267C349.1 115.397 354.421 112.985 360.085 112.395L518.325 97.0877C521.333 96.8031 524.365 97.2136 527.189 98.2876C530.013 99.3616 532.552 101.07 534.61 103.282C536.668 105.493 538.19 108.148 539.059 111.041C539.928 113.935 540.12 116.989 539.62 119.969L479.857 481.052C478.811 487.428 475.437 493.189 470.388 497.22C465.339 501.251 458.973 503.265 452.524 502.872Z" fill="white"/>
</mask>
<g mask="url(#mask1_100_2)">
<path d="M611.24 312.823L368.758 317.043C367.279 317.068 365.812 316.765 364.464 316.156C363.116 315.547 361.92 314.647 360.962 313.52C360.003 312.393 359.306 311.069 358.92 309.64C358.535 308.212 358.47 306.717 358.732 305.261L376.502 204.028C377.009 201.237 378.421 198.69 380.52 196.781C382.618 194.872 385.287 193.707 388.114 193.466L627.425 177.452C629.341 177.323 631.261 177.629 633.041 178.347C634.822 179.065 636.417 180.177 637.708 181.599C638.998 183.02 639.95 184.716 640.493 186.557C641.035 188.399 641.155 190.34 640.841 192.234L623.217 302.26C622.893 305.195 621.486 307.904 619.271 309.857C617.056 311.811 614.193 312.868 611.24 312.823Z" fill="#9A9CE4"/>
</g>
<mask id="mask2_100_2" style="mask-type:luminance" maskUnits="userSpaceOnUse" x="276" y="97" width="264" height="406">
<path d="M452.524 502.872L295.028 493.187C292.257 493.036 289.55 492.296 287.088 491.016C284.625 489.736 282.464 487.945 280.749 485.763C279.034 483.582 277.804 481.059 277.14 478.364C276.477 475.669 276.397 472.864 276.904 470.136L336.911 133.861C337.933 128.258 340.744 123.137 344.922 119.267C349.1 115.397 354.421 112.985 360.085 112.395L518.325 97.0877C521.333 96.8031 524.365 97.2136 527.189 98.2876C530.013 99.3616 532.552 101.07 534.61 103.282C536.668 105.493 538.19 108.148 539.059 111.041C539.928 113.935 540.12 116.989 539.62 119.969L479.857 481.052C478.811 487.428 475.437 493.189 470.388 497.22C465.339 501.251 458.973 503.265 452.524 502.872Z" fill="white"/>
</mask>
<g mask="url(#mask2_100_2)">
<path d="M438.132 475.892L195.649 465.342C194.223 465.265 192.829 464.888 191.558 464.237C190.287 463.586 189.167 462.674 188.271 461.562C187.375 460.45 186.723 459.161 186.357 457.781C185.991 456.4 185.92 454.958 186.148 453.548L204.443 349.876C204.969 346.938 206.505 344.275 208.785 342.349C211.066 340.422 213.947 339.353 216.932 339.326L456.597 337.387C458.449 337.382 460.279 337.779 461.961 338.55C463.644 339.321 465.14 340.449 466.344 341.854C467.549 343.259 468.435 344.909 468.94 346.69C469.445 348.471 469.557 350.341 469.27 352.169L451.316 465.318C450.785 468.384 449.152 471.151 446.724 473.098C444.296 475.046 441.24 476.039 438.132 475.892Z" fill="#9A9CE4"/>
</g>
<path d="M333.216 154.107L536.632 137.91" stroke="#9A9CE4" stroke-width="3.17114" stroke-linecap="round" stroke-linejoin="round"/>
<path d="M436.681 129.641L419.264 131.226C417.679 131.409 416.825 130.177 416.971 128.409C417.12 127.577 417.52 126.811 418.118 126.213C418.715 125.616 419.481 125.216 420.313 125.067L437.742 123.481C439.328 123.311 440.377 124.542 440.023 126.299C439.851 127.12 439.443 127.874 438.85 128.468C438.256 129.061 437.503 129.469 436.681 129.641Z" fill="#22272E"/>
<path d="M448.292 128.592C446.706 128.763 445.657 127.531 446.011 125.774C446.157 124.941 446.556 124.173 447.154 123.575C447.752 122.977 448.52 122.578 449.353 122.432C450.939 122.249 451.988 123.481 451.634 125.25C451.548 126.107 451.168 126.908 450.559 127.517C449.95 128.126 449.149 128.506 448.292 128.592Z" fill="#22272E"/>
<path d="M424.935 465.208L237.338 454.475L207.462 469.64C205.84 470.463 203.919 469.284 203.919 467.465V454.475H182.636C181.208 454.401 179.812 454.027 178.539 453.377C177.266 452.727 176.145 451.816 175.248 450.702C174.351 449.589 173.699 448.299 173.335 446.917C172.971 445.535 172.903 444.091 173.135 442.681L191.43 339.009C191.955 336.069 193.49 333.405 195.771 331.477C198.051 329.549 200.933 328.477 203.919 328.447L443.584 326.507C445.436 326.5 447.267 326.896 448.951 327.667C450.634 328.437 452.131 329.564 453.336 330.97C454.541 332.376 455.427 334.027 455.931 335.809C456.435 337.591 456.546 339.461 456.256 341.29L438.315 454.475C437.777 457.588 436.12 460.397 433.656 462.374C431.192 464.35 428.091 465.358 424.935 465.208Z" fill="#22272E"/>
<path d="M246.34 375.294C245.12 382.685 238.778 388.71 232.094 388.491C225.41 388.271 221.361 382.393 222.593 374.94C223.825 367.488 230.155 361.744 236.668 361.744C243.181 361.744 247.743 367.903 246.34 375.294Z" fill="#FFE779"/>
<path d="M241.229 422.8L212.371 421.922C211.491 421.878 210.629 421.651 209.84 421.256C209.051 420.861 208.353 420.307 207.79 419.628C207.227 418.949 206.812 418.161 206.569 417.313C206.327 416.465 206.263 415.576 206.383 414.702L207.09 411.043C209.383 397.626 220.641 387.101 232.435 387.284C244.217 387.454 252.133 398.541 249.669 412.092L248.974 416.495C248.653 418.299 247.694 419.929 246.273 421.086C244.851 422.244 243.061 422.852 241.229 422.8Z" fill="#FFE779"/>
<path d="M280.331 379.353L365.351 380.609" stroke="#FFE779" stroke-width="9.75735" stroke-linecap="round"/>
<path d="M279.111 407.406L349.82 407.836" stroke="#FFE779" stroke-width="9.75735" stroke-linecap="round"/>
<path d="M381.667 414.693C382.163 411.682 384.747 409.228 387.469 409.317C390.192 409.407 391.841 411.801 391.339 414.837C390.837 417.872 388.259 420.212 385.606 420.212C382.953 420.212 381.095 417.703 381.667 414.693Z" fill="#FFE779"/>
<path d="M389.646 370.646C389.732 369.959 390.315 369.444 391.007 369.444H401.614C402.55 369.444 403.212 370.361 402.915 371.25L392.853 401.436C392.666 401.997 392.142 402.375 391.551 402.375H387.234C386.409 402.375 385.77 401.651 385.872 400.832L389.646 370.646Z" fill="#FFE779"/>
<path d="M598.213 302.09H575.265V315.014C575.265 316.832 573.348 318.011 571.725 317.191L541.846 302.09L355.743 306.359C354.264 306.383 352.797 306.08 351.449 305.471C350.1 304.862 348.903 303.962 347.944 302.836C346.984 301.71 346.286 300.385 345.899 298.957C345.512 297.529 345.446 296.033 345.705 294.577L363.476 193.344C363.983 190.551 365.397 188.002 367.498 186.093C369.599 184.184 372.27 183.02 375.099 182.782L614.41 166.767C616.326 166.639 618.246 166.945 620.027 167.663C621.807 168.381 623.403 169.493 624.693 170.914C625.983 172.336 626.936 174.031 627.478 175.873C628.021 177.715 628.14 179.656 627.827 181.55L610.227 291.527C609.876 294.458 608.456 297.156 606.239 299.105C604.022 301.054 601.165 302.117 598.213 302.09Z" fill="#22272E"/>
<path d="M418.555 225.543C417.336 232.764 410.993 238.96 404.48 239.264C397.967 239.569 393.747 233.995 394.979 226.775C396.211 219.555 402.541 213.359 409.054 213.054C415.567 212.749 419.787 218.335 418.555 225.543Z" fill="#95DCBA"/>
<path d="M413.983 271.83L385.126 272.708C384.206 272.745 383.289 272.576 382.443 272.213C381.597 271.85 380.843 271.302 380.236 270.61C379.629 269.918 379.185 269.098 378.935 268.212C378.686 267.326 378.639 266.395 378.796 265.487L379.32 262.316C381.601 249.302 392.871 238.216 404.653 237.923C416.447 237.399 424.363 247.778 422.082 260.975L421.374 265.548C421.017 267.269 420.097 268.821 418.758 269.959C417.419 271.097 415.739 271.755 413.983 271.83Z" fill="#95DCBA"/>
<path d="M457.183 225.675L586.377 217.749" stroke="#95DCBA" stroke-width="9.75735" stroke-linecap="round"/>
<path d="M455.962 252.508L552.226 248.241" stroke="#95DCBA" stroke-width="9.75735" stroke-linecap="round"/>
</svg>
