<svg width="800" height="600" viewBox="0 0 800 600" fill="none" xmlns="http://www.w3.org/2000/svg">
<mask id="mask0_100_4" style="mask-type:alpha" maskUnits="userSpaceOnUse" x="0" y="0" width="800" height="600">
<rect opacity="0.9" width="800" height="600" fill="#D9D9D9"/>
</mask>
<g mask="url(#mask0_100_4)">
<path opacity="0.25" d="M864.75 -29H771.833H678.917H586H493.083H400.167H307H214.083H121.083H28.1667H-64.8333C-67.1667 -29 -69 -27.1667 -69 -24.8333V68.0833V161V253.917V346.833V439.75V532.667V625.583C-69 627.917 -67.1667 629.75 -64.8333 629.75H28.0833H121H213.917H307H399.917H492.833H585.75H678.667H771.583H864.5C866.833 629.75 868.667 627.917 868.667 625.583V532.917V439.917V347V254V161.083V68.0833V-24.8333C868.917 -27.1667 867.083 -29 864.75 -29ZM860.583 156.917H776V72.25H860.583V156.917ZM860.583 249.833H776V165.25H860.583V249.833ZM860.583 342.833H776V258.167H860.583V342.833ZM860.583 435.75H776V351.167H860.583V435.75ZM-60.6667 351.167H23.9167V435.75H-60.6667V351.167ZM-60.6667 258.167H23.9167V342.75H-60.6667V258.167ZM-60.6667 165.25H23.9167V249.833H-60.6667V165.25ZM32.3334 258.167H116.917V342.75H32.3334V258.167ZM125.25 258.167H209.833V342.75H125.25V258.167ZM218.25 258.167H302.833V342.75H218.25V258.167ZM311.167 258.167H395.75V342.75H311.167V258.167ZM404.167 258.167H488.75V342.75H404.167V258.167ZM497.083 258.167H581.667V342.75H497.083V258.167ZM590.083 258.167H674.667V342.75H590.083V258.167ZM683 258.167H767.583V342.75H683V258.167ZM767.667 249.833H683.083V165.25H767.667V249.833ZM674.667 249.833H590.083V165.25H674.667V249.833ZM581.75 249.833H497.167V165.25H581.75V249.833ZM488.75 249.833H404.167V165.25H488.75V249.833ZM395.833 249.833H311.167V165.25H395.75L395.833 249.833ZM302.833 249.833H218.25V165.25H302.833V249.833ZM209.917 249.833H125.25V165.25H209.833L209.917 249.833ZM116.917 249.833H32.3334V165.25H116.917V249.833ZM32.3334 351.167H116.917V435.75H32.3334V351.167ZM125.25 351.167H209.833V435.75H125.25V351.167ZM218.25 351.167H302.833V435.75H218.25V351.167ZM311.167 351.167H395.75V435.75H311.167V351.167ZM404.167 351.167H488.75V435.75H404.167V351.167ZM497.083 351.167H581.667V435.75H497.083V351.167ZM590.083 351.167H674.667V435.75H590.083V351.167ZM683 351.167H767.583V435.75H683V351.167ZM767.667 156.917H683.083V72.25H767.667V156.917ZM674.667 156.917H590.083V72.25H674.667V156.917ZM581.75 156.917H497.167V72.25H581.75V156.917ZM488.75 156.917H404.167V72.25H488.75V156.917ZM395.833 156.917H311.167V72.25H395.75L395.833 156.917ZM302.833 156.917H218.25V72.25H302.833V156.917ZM209.917 156.917H125.25V72.25H209.833L209.917 156.917ZM116.917 156.917H32.3334V72.25H116.917V156.917ZM24 156.917H-60.6667V72.25H23.9167V156.917H24ZM-60.6667 444.083H23.9167V528.667H-60.6667V444.083ZM32.3334 444.083H116.917V528.667H32.3334V444.083ZM125.25 444.083H209.833V528.667H125.25V444.083ZM218.25 444.083H302.833V528.667H218.25V444.083ZM311.167 444.083H395.75V528.667H311.167V444.083ZM404.167 444.083H488.75V528.667H404.167V444.083ZM497.083 444.083H581.667V528.667H497.083V444.083ZM590.083 444.083H674.667V528.667H590.083V444.083ZM683 444.083H767.583V528.667H683V444.083ZM776 444.083H860.583V528.667H776V444.083ZM860.583 63.9167H776V-20.6667H860.583V63.9167ZM767.667 63.9167H683.083V-20.6667H767.667V63.9167ZM674.667 63.9167H590.083V-20.6667H674.667V63.9167ZM581.75 63.9167H497.167V-20.6667H581.75V63.9167ZM488.75 63.9167H404.167V-20.6667H488.75V63.9167ZM395.833 63.9167H311.167V-20.6667H395.75L395.833 63.9167ZM302.833 63.9167H218.25V-20.6667H302.833V63.9167ZM209.917 63.9167H125.25V-20.6667H209.833L209.917 63.9167ZM116.917 63.9167H32.3334V-20.6667H116.917V63.9167ZM-60.6667 -20.6667H23.9167V63.9167H-60.6667V-20.6667ZM-60.6667 537.083H23.9167V621.667H-60.6667V537.083ZM32.3334 537.083H116.917V621.667H32.3334V537.083ZM125.25 537.083H209.833V621.667H125.25V537.083ZM218.25 537.083H302.833V621.667H218.25V537.083ZM311.167 537.083H395.75V621.667H311.167V537.083ZM404.167 537.083H488.75V621.667H404.167V537.083ZM497.083 537.083H581.667V621.667H497.083V537.083ZM590.083 537.083H674.667V621.667H590.083V537.083ZM683 537.083H767.583V621.667H683V537.083ZM860.583 621.667H776V537.083H860.583V621.667Z" fill="#B3D6C5"/>
</g>
<rect x="111" y="328.769" width="92.2885" height="28.2692" rx="9.42308" fill="#4B5563"/>
<rect x="213.133" y="328.769" width="100.902" height="28.2692" rx="9.42308" fill="#95DCBA"/>
<rect x="323.879" y="328.769" width="365.462" height="28.2692" rx="9.42308" fill="#4B5563"/>
<rect x="111" y="402.731" width="254.716" height="28.2692" rx="9.42308" fill="#4B5563"/>
<rect x="375.561" y="402.731" width="136.587" height="28.2692" rx="9.42308" fill="#CDCEFF"/>
<rect x="521.991" y="402.731" width="167.35" height="28.2692" rx="9.42308" fill="#E95838"/>
<rect x="111" y="179.423" width="215.553" height="75.3846" rx="9.42308" fill="#BB371A"/>
<rect x="120.423" y="170" width="216.731" height="75.3846" rx="9.42308" fill="#E95838"/>
<rect x="356" y="179.423" width="127.212" height="75.3846" rx="9.42308" fill="#369065"/>
<rect x="365.423" y="170" width="126.034" height="75.3846" rx="9.42308" fill="#95DCBA"/>
<rect x="510.303" y="179.423" width="170.793" height="75.3846" rx="9.42308" fill="#9A9CE4"/>
<rect x="519.726" y="170" width="169.615" height="75.3846" rx="9.42308" fill="#CDCEFF"/>
</svg>
