<svg width="800" height="600" viewBox="0 0 800 600" fill="none" xmlns="http://www.w3.org/2000/svg">
<mask id="mask0_100_3" style="mask-type:alpha" maskUnits="userSpaceOnUse" x="0" y="0" width="800" height="600">
<rect width="800" height="600" fill="#D9D9D9"/>
</mask>
<g mask="url(#mask0_100_3)">
<g opacity="0.25">
<path d="M780.411 63.6418C784.555 63.6418 787.915 60.2819 787.915 56.1373C787.915 51.9927 784.555 48.6328 780.411 48.6328C776.266 48.6328 772.906 51.9927 772.906 56.1373C772.906 60.2819 776.266 63.6418 780.411 63.6418Z" fill="#C4C5E1"/>
<path d="M780.411 129.682C784.555 129.682 787.915 126.322 787.915 122.177C787.915 118.033 784.555 114.673 780.411 114.673C776.266 114.673 772.906 118.033 772.906 122.177C772.906 126.322 776.266 129.682 780.411 129.682Z" fill="#C4C5E1"/>
<path d="M780.411 195.721C784.555 195.721 787.915 192.361 787.915 188.217C787.915 184.072 784.555 180.712 780.411 180.712C776.266 180.712 772.906 184.072 772.906 188.217C772.906 192.361 776.266 195.721 780.411 195.721Z" fill="#C4C5E1"/>
<path d="M780.411 261.761C784.555 261.761 787.915 258.402 787.915 254.257C787.915 250.112 784.555 246.752 780.411 246.752C776.266 246.752 772.906 250.112 772.906 254.257C772.906 258.402 776.266 261.761 780.411 261.761Z" fill="#C4C5E1"/>
<path d="M780.411 327.801C784.555 327.801 787.915 324.442 787.915 320.297C787.915 316.152 784.555 312.792 780.411 312.792C776.266 312.792 772.906 316.152 772.906 320.297C772.906 324.442 776.266 327.801 780.411 327.801Z" fill="#C4C5E1"/>
<path d="M714.371 63.6418C718.515 63.6418 721.875 60.2819 721.875 56.1373C721.875 51.9927 718.515 48.6328 714.371 48.6328C710.226 48.6328 706.866 51.9927 706.866 56.1373C706.866 60.2819 710.226 63.6418 714.371 63.6418Z" fill="#C4C5E1"/>
<path d="M714.371 129.682C718.515 129.682 721.875 126.322 721.875 122.177C721.875 118.033 718.515 114.673 714.371 114.673C710.226 114.673 706.866 118.033 706.866 122.177C706.866 126.322 710.226 129.682 714.371 129.682Z" fill="#C4C5E1"/>
<path d="M714.371 195.721C718.515 195.721 721.875 192.361 721.875 188.217C721.875 184.072 718.515 180.712 714.371 180.712C710.226 180.712 706.866 184.072 706.866 188.217C706.866 192.361 710.226 195.721 714.371 195.721Z" fill="#C4C5E1"/>
<path d="M714.371 261.761C718.515 261.761 721.875 258.402 721.875 254.257C721.875 250.112 718.515 246.752 714.371 246.752C710.226 246.752 706.866 250.112 706.866 254.257C706.866 258.402 710.226 261.761 714.371 261.761Z" fill="#C4C5E1"/>
<path d="M714.371 327.801C718.515 327.801 721.875 324.442 721.875 320.297C721.875 316.152 718.515 312.792 714.371 312.792C710.226 312.792 706.866 316.152 706.866 320.297C706.866 324.442 710.226 327.801 714.371 327.801Z" fill="#C4C5E1"/>
<path d="M714.371 393.841C718.515 393.841 721.875 390.481 721.875 386.336C721.875 382.192 718.515 378.832 714.371 378.832C710.226 378.832 706.866 382.192 706.866 386.336C706.866 390.481 710.226 393.841 714.371 393.841Z" fill="#C4C5E1"/>
<path d="M714.371 459.881C718.515 459.881 721.875 456.521 721.875 452.376C721.875 448.232 718.515 444.872 714.371 444.872C710.226 444.872 706.866 448.232 706.866 452.376C706.866 456.521 710.226 459.881 714.371 459.881Z" fill="#C4C5E1"/>
<path d="M714.371 525.921C718.515 525.921 721.875 522.561 721.875 518.416C721.875 514.272 718.515 510.912 714.371 510.912C710.226 510.912 706.866 514.272 706.866 518.416C706.866 522.561 710.226 525.921 714.371 525.921Z" fill="#C4C5E1"/>
<path d="M648.332 63.6418C652.476 63.6418 655.836 60.2819 655.836 56.1373C655.836 51.9927 652.476 48.6328 648.332 48.6328C644.187 48.6328 640.827 51.9927 640.827 56.1373C640.827 60.2819 644.187 63.6418 648.332 63.6418Z" fill="#C4C5E1"/>
<path d="M648.332 129.682C652.476 129.682 655.836 126.322 655.836 122.177C655.836 118.033 652.476 114.673 648.332 114.673C644.187 114.673 640.827 118.033 640.827 122.177C640.827 126.322 644.187 129.682 648.332 129.682Z" fill="#C4C5E1"/>
<path d="M648.332 195.721C652.476 195.721 655.836 192.361 655.836 188.217C655.836 184.072 652.476 180.712 648.332 180.712C644.187 180.712 640.827 184.072 640.827 188.217C640.827 192.361 644.187 195.721 648.332 195.721Z" fill="#C4C5E1"/>
<path d="M648.332 261.761C652.476 261.761 655.836 258.402 655.836 254.257C655.836 250.112 652.476 246.752 648.332 246.752C644.187 246.752 640.827 250.112 640.827 254.257C640.827 258.402 644.187 261.761 648.332 261.761Z" fill="#C4C5E1"/>
<path d="M648.332 327.801C652.476 327.801 655.836 324.442 655.836 320.297C655.836 316.152 652.476 312.792 648.332 312.792C644.187 312.792 640.827 316.152 640.827 320.297C640.827 324.442 644.187 327.801 648.332 327.801Z" fill="#C4C5E1"/>
<path d="M648.332 393.841C652.476 393.841 655.836 390.481 655.836 386.336C655.836 382.192 652.476 378.832 648.332 378.832C644.187 378.832 640.827 382.192 640.827 386.336C640.827 390.481 644.187 393.841 648.332 393.841Z" fill="#C4C5E1"/>
<path d="M648.332 459.881C652.476 459.881 655.836 456.521 655.836 452.377C655.836 448.232 652.476 444.872 648.332 444.872C644.187 444.872 640.827 448.232 640.827 452.377C640.827 456.521 644.187 459.881 648.332 459.881Z" fill="#C4C5E1"/>
<path d="M648.332 525.921C652.476 525.921 655.836 522.561 655.836 518.416C655.836 514.272 652.476 510.912 648.332 510.912C644.187 510.912 640.827 514.272 640.827 518.416C640.827 522.561 644.187 525.921 648.332 525.921Z" fill="#C4C5E1"/>
<path d="M648.332 591.96C652.476 591.96 655.836 588.6 655.836 584.455C655.836 580.311 652.476 576.951 648.332 576.951C644.187 576.951 640.827 580.311 640.827 584.455C640.827 588.6 644.187 591.96 648.332 591.96Z" fill="#C4C5E1"/>
<path d="M582.294 63.6419C586.438 63.6419 589.798 60.2821 589.798 56.1374C589.798 51.9928 586.438 48.6329 582.294 48.6329C578.149 48.6329 574.789 51.9928 574.789 56.1374C574.789 60.2821 578.149 63.6419 582.294 63.6419Z" fill="#C4C5E1"/>
<path d="M582.294 129.681C586.438 129.681 589.798 126.322 589.798 122.177C589.798 118.032 586.438 114.672 582.294 114.672C578.149 114.672 574.789 118.032 574.789 122.177C574.789 126.322 578.149 129.681 582.294 129.681Z" fill="#C4C5E1"/>
<path d="M582.294 195.721C586.438 195.721 589.798 192.361 589.798 188.217C589.798 184.072 586.438 180.712 582.294 180.712C578.149 180.712 574.789 184.072 574.789 188.217C574.789 192.361 578.149 195.721 582.294 195.721Z" fill="#C4C5E1"/>
<path d="M582.294 261.761C586.438 261.761 589.798 258.401 589.798 254.257C589.798 250.112 586.438 246.752 582.294 246.752C578.149 246.752 574.789 250.112 574.789 254.257C574.789 258.401 578.149 261.761 582.294 261.761Z" fill="#C4C5E1"/>
<path d="M582.294 327.801C586.438 327.801 589.798 324.442 589.798 320.297C589.798 316.152 586.438 312.792 582.294 312.792C578.149 312.792 574.789 316.152 574.789 320.297C574.789 324.442 578.149 327.801 582.294 327.801Z" fill="#C4C5E1"/>
<path d="M582.294 393.841C586.438 393.841 589.798 390.481 589.798 386.336C589.798 382.192 586.438 378.832 582.294 378.832C578.149 378.832 574.789 382.192 574.789 386.336C574.789 390.481 578.149 393.841 582.294 393.841Z" fill="#C4C5E1"/>
<path d="M582.294 459.881C586.438 459.881 589.798 456.521 589.798 452.377C589.798 448.232 586.438 444.872 582.294 444.872C578.149 444.872 574.789 448.232 574.789 452.377C574.789 456.521 578.149 459.881 582.294 459.881Z" fill="#C4C5E1"/>
<path d="M582.295 525.921C586.439 525.921 589.799 522.561 589.799 518.416C589.799 514.272 586.439 510.912 582.295 510.912C578.15 510.912 574.79 514.272 574.79 518.416C574.79 522.561 578.15 525.921 582.295 525.921Z" fill="#C4C5E1"/>
<path d="M582.294 591.96C586.438 591.96 589.798 588.6 589.798 584.455C589.798 580.311 586.438 576.951 582.294 576.951C578.149 576.951 574.789 580.311 574.789 584.455C574.789 588.6 578.149 591.96 582.294 591.96Z" fill="#C4C5E1"/>
<path d="M516.255 63.6418C520.399 63.6418 523.759 60.2819 523.759 56.1373C523.759 51.9927 520.399 48.6328 516.255 48.6328C512.11 48.6328 508.75 51.9927 508.75 56.1373C508.75 60.2819 512.11 63.6418 516.255 63.6418Z" fill="#C4C5E1"/>
<path d="M516.255 129.681C520.399 129.681 523.759 126.321 523.759 122.177C523.759 118.032 520.399 114.672 516.255 114.672C512.11 114.672 508.75 118.032 508.75 122.177C508.75 126.321 512.11 129.681 516.255 129.681Z" fill="#C4C5E1"/>
<path d="M516.255 195.721C520.399 195.721 523.759 192.361 523.759 188.217C523.759 184.072 520.399 180.712 516.255 180.712C512.11 180.712 508.75 184.072 508.75 188.217C508.75 192.361 512.11 195.721 516.255 195.721Z" fill="#C4C5E1"/>
<path d="M516.255 261.761C520.399 261.761 523.759 258.402 523.759 254.257C523.759 250.112 520.399 246.752 516.255 246.752C512.11 246.752 508.75 250.112 508.75 254.257C508.75 258.402 512.11 261.761 516.255 261.761Z" fill="#C4C5E1"/>
<path d="M516.255 327.801C520.399 327.801 523.759 324.441 523.759 320.297C523.759 316.152 520.399 312.792 516.255 312.792C512.11 312.792 508.75 316.152 508.75 320.297C508.75 324.441 512.11 327.801 516.255 327.801Z" fill="#C4C5E1"/>
<path d="M516.255 393.841C520.399 393.841 523.759 390.481 523.759 386.336C523.759 382.192 520.399 378.832 516.255 378.832C512.11 378.832 508.75 382.192 508.75 386.336C508.75 390.481 512.11 393.841 516.255 393.841Z" fill="#C4C5E1"/>
<path d="M516.255 459.881C520.399 459.881 523.759 456.521 523.759 452.376C523.759 448.232 520.399 444.872 516.255 444.872C512.11 444.872 508.75 448.232 508.75 452.376C508.75 456.521 512.11 459.881 516.255 459.881Z" fill="#C4C5E1"/>
<path d="M516.255 525.921C520.399 525.921 523.759 522.561 523.759 518.416C523.759 514.272 520.399 510.912 516.255 510.912C512.11 510.912 508.75 514.272 508.75 518.416C508.75 522.561 512.11 525.921 516.255 525.921Z" fill="#C4C5E1"/>
<path d="M516.255 591.96C520.399 591.96 523.759 588.6 523.759 584.455C523.759 580.311 520.399 576.951 516.255 576.951C512.11 576.951 508.75 580.311 508.75 584.455C508.75 588.6 512.11 591.96 516.255 591.96Z" fill="#C4C5E1"/>
<path d="M450.217 63.6418C454.362 63.6418 457.722 60.2819 457.722 56.1373C457.722 51.9927 454.362 48.6328 450.217 48.6328C446.073 48.6328 442.713 51.9927 442.713 56.1373C442.713 60.2819 446.073 63.6418 450.217 63.6418Z" fill="#C4C5E1"/>
<path d="M450.217 129.682C454.362 129.682 457.722 126.322 457.722 122.177C457.722 118.033 454.362 114.673 450.217 114.673C446.073 114.673 442.713 118.033 442.713 122.177C442.713 126.322 446.073 129.682 450.217 129.682Z" fill="#C4C5E1"/>
<path d="M450.217 195.721C454.362 195.721 457.722 192.361 457.722 188.217C457.722 184.072 454.362 180.712 450.217 180.712C446.073 180.712 442.713 184.072 442.713 188.217C442.713 192.361 446.073 195.721 450.217 195.721Z" fill="#C4C5E1"/>
<path d="M450.217 261.761C454.362 261.761 457.722 258.402 457.722 254.257C457.722 250.112 454.362 246.752 450.217 246.752C446.073 246.752 442.713 250.112 442.713 254.257C442.713 258.402 446.073 261.761 450.217 261.761Z" fill="#C4C5E1"/>
<path d="M450.217 327.801C454.362 327.801 457.722 324.442 457.722 320.297C457.722 316.152 454.362 312.792 450.217 312.792C446.073 312.792 442.713 316.152 442.713 320.297C442.713 324.442 446.073 327.801 450.217 327.801Z" fill="#C4C5E1"/>
<path d="M450.217 393.841C454.362 393.841 457.722 390.481 457.722 386.336C457.722 382.192 454.362 378.832 450.217 378.832C446.073 378.832 442.713 382.192 442.713 386.336C442.713 390.481 446.073 393.841 450.217 393.841Z" fill="#C4C5E1"/>
<path d="M450.217 459.881C454.362 459.881 457.722 456.521 457.722 452.376C457.722 448.232 454.362 444.872 450.217 444.872C446.073 444.872 442.713 448.232 442.713 452.376C442.713 456.521 446.073 459.881 450.217 459.881Z" fill="#C4C5E1"/>
<path d="M450.217 525.921C454.362 525.921 457.722 522.561 457.722 518.416C457.722 514.272 454.362 510.912 450.217 510.912C446.073 510.912 442.713 514.272 442.713 518.416C442.713 522.561 446.073 525.921 450.217 525.921Z" fill="#C4C5E1"/>
<path d="M450.217 591.96C454.362 591.96 457.722 588.6 457.722 584.455C457.722 580.311 454.362 576.951 450.217 576.951C446.073 576.951 442.713 580.311 442.713 584.455C442.713 588.6 446.073 591.96 450.217 591.96Z" fill="#C4C5E1"/>
<path d="M384.171 63.6418C388.316 63.6418 391.676 60.2819 391.676 56.1373C391.676 51.9927 388.316 48.6328 384.171 48.6328C380.027 48.6328 376.667 51.9927 376.667 56.1373C376.667 60.2819 380.027 63.6418 384.171 63.6418Z" fill="#C4C5E1"/>
<path d="M384.171 129.682C388.316 129.682 391.676 126.322 391.676 122.177C391.676 118.033 388.316 114.673 384.171 114.673C380.027 114.673 376.667 118.033 376.667 122.177C376.667 126.322 380.027 129.682 384.171 129.682Z" fill="#C4C5E1"/>
<path d="M384.171 195.721C388.316 195.721 391.676 192.361 391.676 188.217C391.676 184.072 388.316 180.712 384.171 180.712C380.027 180.712 376.667 184.072 376.667 188.217C376.667 192.361 380.027 195.721 384.171 195.721Z" fill="#C4C5E1"/>
<path d="M384.171 261.761C388.316 261.761 391.676 258.402 391.676 254.257C391.676 250.112 388.316 246.752 384.171 246.752C380.027 246.752 376.667 250.112 376.667 254.257C376.667 258.402 380.027 261.761 384.171 261.761Z" fill="#C4C5E1"/>
<path d="M384.171 327.801C388.316 327.801 391.676 324.442 391.676 320.297C391.676 316.152 388.316 312.792 384.171 312.792C380.027 312.792 376.667 316.152 376.667 320.297C376.667 324.442 380.027 327.801 384.171 327.801Z" fill="#C4C5E1"/>
<path d="M384.171 393.841C388.316 393.841 391.676 390.481 391.676 386.336C391.676 382.192 388.316 378.832 384.171 378.832C380.027 378.832 376.667 382.192 376.667 386.336C376.667 390.481 380.027 393.841 384.171 393.841Z" fill="#C4C5E1"/>
<path d="M384.171 459.881C388.316 459.881 391.676 456.521 391.676 452.376C391.676 448.232 388.316 444.872 384.171 444.872C380.027 444.872 376.667 448.232 376.667 452.376C376.667 456.521 380.027 459.881 384.171 459.881Z" fill="#C4C5E1"/>
<path d="M384.171 525.921C388.316 525.921 391.676 522.561 391.676 518.416C391.676 514.272 388.316 510.912 384.171 510.912C380.027 510.912 376.667 514.272 376.667 518.416C376.667 522.561 380.027 525.921 384.171 525.921Z" fill="#C4C5E1"/>
<path d="M384.171 591.96C388.316 591.96 391.676 588.6 391.676 584.455C391.676 580.311 388.316 576.951 384.171 576.951C380.027 576.951 376.667 580.311 376.667 584.455C376.667 588.6 380.027 591.96 384.171 591.96Z" fill="#C4C5E1"/>
<path d="M318.133 63.6418C322.278 63.6418 325.638 60.2819 325.638 56.1373C325.638 51.9927 322.278 48.6328 318.133 48.6328C313.989 48.6328 310.629 51.9927 310.629 56.1373C310.629 60.2819 313.989 63.6418 318.133 63.6418Z" fill="#C4C5E1"/>
<path d="M318.133 129.682C322.278 129.682 325.638 126.322 325.638 122.177C325.638 118.033 322.278 114.673 318.133 114.673C313.989 114.673 310.629 118.033 310.629 122.177C310.629 126.322 313.989 129.682 318.133 129.682Z" fill="#C4C5E1"/>
<path d="M318.133 195.721C322.278 195.721 325.638 192.361 325.638 188.217C325.638 184.072 322.278 180.712 318.133 180.712C313.989 180.712 310.629 184.072 310.629 188.217C310.629 192.361 313.989 195.721 318.133 195.721Z" fill="#C4C5E1"/>
<path d="M318.133 261.761C322.278 261.761 325.638 258.402 325.638 254.257C325.638 250.112 322.278 246.752 318.133 246.752C313.989 246.752 310.629 250.112 310.629 254.257C310.629 258.402 313.989 261.761 318.133 261.761Z" fill="#C4C5E1"/>
<path d="M318.133 327.801C322.278 327.801 325.638 324.442 325.638 320.297C325.638 316.152 322.278 312.792 318.133 312.792C313.989 312.792 310.629 316.152 310.629 320.297C310.629 324.442 313.989 327.801 318.133 327.801Z" fill="#C4C5E1"/>
<path d="M318.133 393.841C322.278 393.841 325.638 390.481 325.638 386.336C325.638 382.192 322.278 378.832 318.133 378.832C313.989 378.832 310.629 382.192 310.629 386.336C310.629 390.481 313.989 393.841 318.133 393.841Z" fill="#C4C5E1"/>
<path d="M318.133 459.881C322.278 459.881 325.638 456.521 325.638 452.376C325.638 448.232 322.278 444.872 318.133 444.872C313.989 444.872 310.629 448.232 310.629 452.376C310.629 456.521 313.989 459.881 318.133 459.881Z" fill="#C4C5E1"/>
<path d="M318.133 525.921C322.278 525.921 325.638 522.561 325.638 518.416C325.638 514.272 322.278 510.912 318.133 510.912C313.989 510.912 310.629 514.272 310.629 518.416C310.629 522.561 313.989 525.921 318.133 525.921Z" fill="#C4C5E1"/>
<path d="M318.133 591.96C322.278 591.96 325.638 588.6 325.638 584.455C325.638 580.311 322.278 576.951 318.133 576.951C313.989 576.951 310.629 580.311 310.629 584.455C310.629 588.6 313.989 591.96 318.133 591.96Z" fill="#C4C5E1"/>
<path d="M252.096 63.6418C256.241 63.6418 259.601 60.2819 259.601 56.1373C259.601 51.9927 256.241 48.6328 252.096 48.6328C247.952 48.6328 244.592 51.9927 244.592 56.1373C244.592 60.2819 247.952 63.6418 252.096 63.6418Z" fill="#C4C5E1"/>
<path d="M252.096 129.682C256.241 129.682 259.601 126.322 259.601 122.177C259.601 118.033 256.241 114.673 252.096 114.673C247.952 114.673 244.592 118.033 244.592 122.177C244.592 126.322 247.952 129.682 252.096 129.682Z" fill="#C4C5E1"/>
<path d="M252.096 195.721C256.241 195.721 259.601 192.361 259.601 188.217C259.601 184.072 256.241 180.712 252.096 180.712C247.952 180.712 244.592 184.072 244.592 188.217C244.592 192.361 247.952 195.721 252.096 195.721Z" fill="#C4C5E1"/>
<path d="M252.096 261.761C256.241 261.761 259.601 258.402 259.601 254.257C259.601 250.112 256.241 246.752 252.096 246.752C247.952 246.752 244.592 250.112 244.592 254.257C244.592 258.402 247.952 261.761 252.096 261.761Z" fill="#C4C5E1"/>
<path d="M252.096 327.801C256.241 327.801 259.601 324.442 259.601 320.297C259.601 316.152 256.241 312.792 252.096 312.792C247.952 312.792 244.592 316.152 244.592 320.297C244.592 324.442 247.952 327.801 252.096 327.801Z" fill="#C4C5E1"/>
<path d="M252.096 393.841C256.241 393.841 259.601 390.481 259.601 386.336C259.601 382.192 256.241 378.832 252.096 378.832C247.952 378.832 244.592 382.192 244.592 386.336C244.592 390.481 247.952 393.841 252.096 393.841Z" fill="#C4C5E1"/>
<path d="M252.096 459.881C256.241 459.881 259.601 456.521 259.601 452.376C259.601 448.232 256.241 444.872 252.096 444.872C247.952 444.872 244.592 448.232 244.592 452.376C244.592 456.521 247.952 459.881 252.096 459.881Z" fill="#C4C5E1"/>
<path d="M252.096 525.921C256.241 525.921 259.601 522.561 259.601 518.416C259.601 514.272 256.241 510.912 252.096 510.912C247.952 510.912 244.592 514.272 244.592 518.416C244.592 522.561 247.952 525.921 252.096 525.921Z" fill="#C4C5E1"/>
<path d="M252.096 591.96C256.241 591.96 259.601 588.6 259.601 584.455C259.601 580.311 256.241 576.951 252.096 576.951C247.952 576.951 244.592 580.311 244.592 584.455C244.592 588.6 247.952 591.96 252.096 591.96Z" fill="#C4C5E1"/>
<path d="M186.055 63.6419C190.2 63.6419 193.56 60.2821 193.56 56.1374C193.56 51.9928 190.2 48.6329 186.055 48.6329C181.911 48.6329 178.551 51.9928 178.551 56.1374C178.551 60.2821 181.911 63.6419 186.055 63.6419Z" fill="#C4C5E1"/>
<path d="M186.055 129.681C190.2 129.681 193.56 126.322 193.56 122.177C193.56 118.032 190.2 114.672 186.055 114.672C181.911 114.672 178.551 118.032 178.551 122.177C178.551 126.322 181.911 129.681 186.055 129.681Z" fill="#C4C5E1"/>
<path d="M186.055 195.721C190.2 195.721 193.56 192.361 193.56 188.217C193.56 184.072 190.2 180.712 186.055 180.712C181.911 180.712 178.551 184.072 178.551 188.217C178.551 192.361 181.911 195.721 186.055 195.721Z" fill="#C4C5E1"/>
<path d="M186.055 261.761C190.2 261.761 193.56 258.401 193.56 254.257C193.56 250.112 190.2 246.752 186.055 246.752C181.911 246.752 178.551 250.112 178.551 254.257C178.551 258.401 181.911 261.761 186.055 261.761Z" fill="#C4C5E1"/>
<path d="M186.055 327.801C190.2 327.801 193.56 324.442 193.56 320.297C193.56 316.152 190.2 312.792 186.055 312.792C181.911 312.792 178.551 316.152 178.551 320.297C178.551 324.442 181.911 327.801 186.055 327.801Z" fill="#C4C5E1"/>
<path d="M186.055 393.841C190.2 393.841 193.56 390.481 193.56 386.336C193.56 382.192 190.2 378.832 186.055 378.832C181.911 378.832 178.551 382.192 178.551 386.336C178.551 390.481 181.911 393.841 186.055 393.841Z" fill="#C4C5E1"/>
<path d="M186.055 459.881C190.2 459.881 193.56 456.521 193.56 452.377C193.56 448.232 190.2 444.872 186.055 444.872C181.911 444.872 178.551 448.232 178.551 452.377C178.551 456.521 181.911 459.881 186.055 459.881Z" fill="#C4C5E1"/>
<path d="M186.055 525.921C190.2 525.921 193.56 522.561 193.56 518.416C193.56 514.271 190.2 510.911 186.055 510.911C181.911 510.911 178.551 514.271 178.551 518.416C178.551 522.561 181.911 525.921 186.055 525.921Z" fill="#C4C5E1"/>
<path d="M186.055 591.96C190.2 591.96 193.56 588.6 193.56 584.455C193.56 580.311 190.2 576.951 186.055 576.951C181.911 576.951 178.551 580.311 178.551 584.455C178.551 588.6 181.911 591.96 186.055 591.96Z" fill="#C4C5E1"/>
<path d="M120.014 63.6418C124.159 63.6418 127.519 60.2819 127.519 56.1373C127.519 51.9927 124.159 48.6328 120.014 48.6328C115.87 48.6328 112.51 51.9927 112.51 56.1373C112.51 60.2819 115.87 63.6418 120.014 63.6418Z" fill="#C4C5E1"/>
<path d="M120.014 129.682C124.159 129.682 127.519 126.322 127.519 122.177C127.519 118.033 124.159 114.673 120.014 114.673C115.87 114.673 112.51 118.033 112.51 122.177C112.51 126.322 115.87 129.682 120.014 129.682Z" fill="#C4C5E1"/>
<path d="M120.014 195.721C124.159 195.721 127.519 192.361 127.519 188.217C127.519 184.072 124.159 180.712 120.014 180.712C115.87 180.712 112.51 184.072 112.51 188.217C112.51 192.361 115.87 195.721 120.014 195.721Z" fill="#C4C5E1"/>
<path d="M120.014 261.761C124.159 261.761 127.519 258.402 127.519 254.257C127.519 250.112 124.159 246.752 120.014 246.752C115.87 246.752 112.51 250.112 112.51 254.257C112.51 258.402 115.87 261.761 120.014 261.761Z" fill="#C4C5E1"/>
<path d="M120.014 327.801C124.159 327.801 127.519 324.442 127.519 320.297C127.519 316.152 124.159 312.792 120.014 312.792C115.87 312.792 112.51 316.152 112.51 320.297C112.51 324.442 115.87 327.801 120.014 327.801Z" fill="#C4C5E1"/>
<path d="M120.014 393.841C124.159 393.841 127.519 390.481 127.519 386.336C127.519 382.192 124.159 378.832 120.014 378.832C115.87 378.832 112.51 382.192 112.51 386.336C112.51 390.481 115.87 393.841 120.014 393.841Z" fill="#C4C5E1"/>
<path d="M120.014 459.881C124.159 459.881 127.519 456.521 127.519 452.376C127.519 448.232 124.159 444.872 120.014 444.872C115.87 444.872 112.51 448.232 112.51 452.376C112.51 456.521 115.87 459.881 120.014 459.881Z" fill="#C4C5E1"/>
<path d="M120.014 525.921C124.159 525.921 127.519 522.561 127.519 518.416C127.519 514.272 124.159 510.912 120.014 510.912C115.87 510.912 112.51 514.272 112.51 518.416C112.51 522.561 115.87 525.921 120.014 525.921Z" fill="#C4C5E1"/>
<path d="M120.014 591.96C124.159 591.96 127.519 588.6 127.519 584.455C127.519 580.311 124.159 576.951 120.014 576.951C115.87 576.951 112.51 580.311 112.51 584.455C112.51 588.6 115.87 591.96 120.014 591.96Z" fill="#C4C5E1"/>
<path d="M53.9791 195.721C58.1238 195.721 61.4837 192.361 61.4837 188.217C61.4837 184.072 58.1238 180.712 53.9791 180.712C49.8345 180.712 46.4746 184.072 46.4746 188.217C46.4746 192.361 49.8345 195.721 53.9791 195.721Z" fill="#C4C5E1"/>
<path d="M53.9791 261.761C58.1238 261.761 61.4837 258.401 61.4837 254.257C61.4837 250.112 58.1238 246.752 53.9791 246.752C49.8345 246.752 46.4746 250.112 46.4746 254.257C46.4746 258.401 49.8345 261.761 53.9791 261.761Z" fill="#C4C5E1"/>
<path d="M53.9791 327.802C58.1238 327.802 61.4837 324.442 61.4837 320.297C61.4837 316.152 58.1238 312.793 53.9791 312.793C49.8345 312.793 46.4746 316.152 46.4746 320.297C46.4746 324.442 49.8345 327.802 53.9791 327.802Z" fill="#C4C5E1"/>
<path d="M53.9791 393.841C58.1238 393.841 61.4837 390.481 61.4837 386.336C61.4837 382.192 58.1238 378.832 53.9791 378.832C49.8345 378.832 46.4746 382.192 46.4746 386.336C46.4746 390.481 49.8345 393.841 53.9791 393.841Z" fill="#C4C5E1"/>
<path d="M53.9791 459.881C58.1238 459.881 61.4837 456.521 61.4837 452.377C61.4837 448.232 58.1238 444.872 53.9791 444.872C49.8345 444.872 46.4746 448.232 46.4746 452.377C46.4746 456.521 49.8345 459.881 53.9791 459.881Z" fill="#C4C5E1"/>
<path d="M53.9791 525.921C58.1238 525.921 61.4837 522.561 61.4837 518.416C61.4837 514.271 58.1238 510.911 53.9791 510.911C49.8345 510.911 46.4746 514.271 46.4746 518.416C46.4746 522.561 49.8345 525.921 53.9791 525.921Z" fill="#C4C5E1"/>
<path d="M53.9791 591.96C58.1238 591.96 61.4837 588.6 61.4837 584.455C61.4837 580.311 58.1238 576.951 53.9791 576.951C49.8345 576.951 46.4746 580.311 46.4746 584.455C46.4746 588.6 49.8345 591.96 53.9791 591.96Z" fill="#C4C5E1"/>
</g>
</g>
<path d="M588.836 438.63L237.626 491.83C235.771 492.117 233.877 492.016 232.064 491.532C230.25 491.048 228.557 490.193 227.091 489.021C225.625 487.849 224.419 486.385 223.549 484.722C222.679 483.059 222.164 481.233 222.036 479.36L201.036 163.06C200.892 161.003 201.192 158.938 201.914 157.006C202.637 155.074 203.766 153.32 205.225 151.862C206.684 150.404 208.439 149.276 210.371 148.555C212.304 147.833 214.369 147.535 216.426 147.68L568.256 170.13C571.487 170.325 574.541 171.668 576.87 173.915C579.198 176.163 580.647 179.169 580.956 182.39L601.116 423.25C601.34 426.88 600.207 430.463 597.938 433.305C595.669 436.147 592.425 438.045 588.836 438.63Z" fill="#63737A"/>
<path d="M598.396 438.21L245.516 491.63C243.662 491.913 241.771 491.807 239.96 491.321C238.149 490.835 236.459 489.978 234.997 488.805C233.534 487.632 232.331 486.168 231.464 484.506C230.596 482.845 230.082 481.021 229.956 479.15L208.736 161.4C208.592 159.316 208.897 157.225 209.63 155.268C210.362 153.312 211.506 151.535 212.983 150.058C214.461 148.58 216.237 147.437 218.194 146.704C220.151 145.971 222.241 145.667 224.326 145.81L577.606 168.26C580.864 168.47 583.938 169.846 586.266 172.135C588.595 174.425 590.021 177.476 590.286 180.73L610.656 422.63C611.058 426.315 609.999 430.011 607.707 432.924C605.415 435.837 602.072 437.735 598.396 438.21Z" fill="#22272E"/>
<path d="M287.217 187.38C287.017 184.26 284.727 181.56 282.027 181.38C279.527 181.18 277.457 183.88 277.867 186.99C278.077 190.32 280.366 192.99 283.066 192.99C285.556 193.2 287.427 190.5 287.217 187.38Z" fill="#63737A"/>
<path d="M268.726 186.76C268.516 183.43 266.026 180.76 263.526 180.76C260.826 180.55 258.956 183.25 259.166 186.58C259.376 189.91 261.866 192.58 264.566 192.58C267.056 192.57 268.956 189.87 268.726 186.76Z" fill="#63737A"/>
<path d="M249.607 185.92C249.397 182.6 246.907 179.92 244.207 179.69C241.507 179.46 239.427 182.18 239.627 185.51C239.827 188.84 242.327 191.51 245.037 191.74C247.957 191.95 249.817 189.25 249.607 185.92Z" fill="#63737A"/>
<path d="M550.809 404.598L286.901 439.991C282.836 440.108 278.869 439.086 275.846 437.144C272.822 435.203 270.982 432.495 270.718 429.598L257.02 250.932C256.915 249.415 257.237 247.898 257.968 246.47C258.698 245.043 259.822 243.735 261.272 242.623C262.723 241.51 264.471 240.617 266.414 239.994C268.357 239.372 270.454 239.034 272.583 239L540.518 240.212C544.509 240.163 548.372 241.217 551.298 243.155C554.224 245.092 555.986 247.762 556.216 250.605L565.967 392.589C566.105 394.092 565.82 395.6 565.129 397.023C564.437 398.447 563.353 399.757 561.94 400.876C560.527 401.996 558.814 402.902 556.902 403.541C554.991 404.18 552.919 404.54 550.809 404.598Z" fill="#95DCBA"/>
<path d="M317.001 297.791L479.001 292" stroke="#282828" stroke-width="8" stroke-linecap="round" stroke-linejoin="round"/>
<path d="M320.001 335.791L510.001 327" stroke="#282828" stroke-width="8" stroke-linecap="round" stroke-linejoin="round"/>
<path d="M325.001 375.791L494.001 365" stroke="#282828" stroke-width="8" stroke-linecap="round" stroke-linejoin="round"/>
<path d="M653.944 285.05L514.28 282.537C511.549 282.542 508.919 281.502 506.929 279.631C504.94 277.759 503.741 275.198 503.579 272.472L491.015 118.549C490.943 117.338 491.128 116.125 491.558 114.99C491.989 113.855 492.655 112.824 493.514 111.966C494.372 111.108 495.403 110.441 496.537 110.01C497.672 109.58 498.886 109.395 500.097 109.468L640.397 124.256C642.953 124.499 645.34 125.647 647.126 127.492C648.913 129.337 649.983 131.758 650.144 134.322L662.42 275.559C662.557 276.753 662.439 277.962 662.075 279.108C661.712 280.253 661.11 281.308 660.309 282.205C659.509 283.101 658.528 283.818 657.431 284.308C656.334 284.798 655.145 285.051 653.944 285.05Z" fill="#F8AB5D"/>
<path d="M661.482 282.492L521.818 279.979C519.088 279.984 516.46 278.943 514.473 277.072C512.486 275.2 511.29 272.639 511.132 269.913L498.584 116.097C498.511 114.886 498.696 113.672 499.127 112.537C499.557 111.403 500.224 110.372 501.082 109.514C501.94 108.655 502.971 107.989 504.106 107.558C505.241 107.128 506.454 106.943 507.666 107.015L647.965 121.804C650.523 122.044 652.911 123.191 654.698 125.036C656.485 126.882 657.554 129.305 657.713 131.869L669.973 273.107C670.066 274.288 669.917 275.476 669.535 276.598C669.153 277.719 668.545 278.751 667.75 279.63C666.955 280.508 665.989 281.215 664.911 281.708C663.833 282.2 662.666 282.467 661.482 282.492Z" fill="#FFE779"/>
<path d="M559.568 135.593L633.495 142.51" stroke="#63737A" stroke-width="5.66101" stroke-linecap="round" stroke-linejoin="round"/>
<path d="M560.825 150.699L634.751 156.981" stroke="#63737A" stroke-width="5.66101" stroke-linecap="round" stroke-linejoin="round"/>
<path d="M563.655 185.301L637.899 190.326" stroke="#63737A" stroke-width="5.66101" stroke-linecap="round" stroke-linejoin="round"/>
<path d="M564.911 200.074L638.837 204.479" stroke="#63737A" stroke-width="5.66101" stroke-linecap="round" stroke-linejoin="round"/>
<path d="M568.06 234.994L641.986 238.142" stroke="#63737A" stroke-width="5.66101" stroke-linecap="round" stroke-linejoin="round"/>
<path d="M569.316 249.782L643.243 252.295" stroke="#63737A" stroke-width="5.66101" stroke-linecap="round" stroke-linejoin="round"/>
<path d="M534.094 144.085L537.863 148.807L543.221 141.572" stroke="#9A9CE4" stroke-width="5.66101" stroke-linecap="round" stroke-linejoin="round"/>
<path d="M538.181 194.413L541.95 198.818L547.611 191.583" stroke="#9A9CE4" stroke-width="5.66101" stroke-linecap="round" stroke-linejoin="round"/>
<path d="M542.267 243.803L546.353 248.208L551.712 240.655" stroke="#9A9CE4" stroke-width="5.66101" stroke-linecap="round" stroke-linejoin="round"/>
<path d="M306.105 399.769C308.155 400.041 309.735 397.948 309.035 395.887L296.472 358.888L267.831 394.69L306.105 399.769Z" fill="#FFF1C0"/>
<path d="M306.842 399.835C308.944 400.097 310.516 397.888 309.702 395.815L303.634 380.369L288.597 397.554L306.842 399.835Z" fill="#22272E"/>
<path d="M286.096 373.006L130.19 243.34L115.644 260.829C113.621 263.262 113.953 266.873 116.386 268.896L267.887 394.9L286.096 373.006Z" fill="#FFE779"/>
<path d="M297.189 359.666L145.688 233.663C143.256 231.64 139.644 231.972 137.621 234.404L129.083 244.67L284.988 374.337L297.189 359.666Z" fill="#F8AB5D"/>
</svg>
