<svg width="800" height="600" viewBox="0 0 800 600" fill="none" xmlns="http://www.w3.org/2000/svg">
<mask id="mask0_100_6" style="mask-type:alpha" maskUnits="userSpaceOnUse" x="0" y="0" width="800" height="600">
<rect opacity="0.9" width="800" height="600" fill="#D9D9D9"/>
</mask>
<g mask="url(#mask0_100_6)">
<path opacity="0.25" d="M864.75 -29H771.833H678.917H586H493.083H400.167H307H214.083H121.083H28.1667H-64.8333C-67.1667 -29 -69 -27.1667 -69 -24.8333V68.0833V161V253.917V346.833V439.75V532.667V625.583C-69 627.917 -67.1667 629.75 -64.8333 629.75H28.0833H121H213.917H307H399.917H492.833H585.75H678.667H771.583H864.5C866.833 629.75 868.667 627.917 868.667 625.583V532.917V439.917V347V254V161.083V68.0833V-24.8333C868.917 -27.1667 867.083 -29 864.75 -29ZM860.583 156.917H776V72.25H860.583V156.917ZM860.583 249.833H776V165.25H860.583V249.833ZM860.583 342.833H776V258.167H860.583V342.833ZM860.583 435.75H776V351.167H860.583V435.75ZM-60.6667 351.167H23.9167V435.75H-60.6667V351.167ZM-60.6667 258.167H23.9167V342.75H-60.6667V258.167ZM-60.6667 165.25H23.9167V249.833H-60.6667V165.25ZM32.3334 258.167H116.917V342.75H32.3334V258.167ZM125.25 258.167H209.833V342.75H125.25V258.167ZM218.25 258.167H302.833V342.75H218.25V258.167ZM311.167 258.167H395.75V342.75H311.167V258.167ZM404.167 258.167H488.75V342.75H404.167V258.167ZM497.083 258.167H581.667V342.75H497.083V258.167ZM590.083 258.167H674.667V342.75H590.083V258.167ZM683 258.167H767.583V342.75H683V258.167ZM767.667 249.833H683.083V165.25H767.667V249.833ZM674.667 249.833H590.083V165.25H674.667V249.833ZM581.75 249.833H497.167V165.25H581.75V249.833ZM488.75 249.833H404.167V165.25H488.75V249.833ZM395.833 249.833H311.167V165.25H395.75L395.833 249.833ZM302.833 249.833H218.25V165.25H302.833V249.833ZM209.917 249.833H125.25V165.25H209.833L209.917 249.833ZM116.917 249.833H32.3334V165.25H116.917V249.833ZM32.3334 351.167H116.917V435.75H32.3334V351.167ZM125.25 351.167H209.833V435.75H125.25V351.167ZM218.25 351.167H302.833V435.75H218.25V351.167ZM311.167 351.167H395.75V435.75H311.167V351.167ZM404.167 351.167H488.75V435.75H404.167V351.167ZM497.083 351.167H581.667V435.75H497.083V351.167ZM590.083 351.167H674.667V435.75H590.083V351.167ZM683 351.167H767.583V435.75H683V351.167ZM767.667 156.917H683.083V72.25H767.667V156.917ZM674.667 156.917H590.083V72.25H674.667V156.917ZM581.75 156.917H497.167V72.25H581.75V156.917ZM488.75 156.917H404.167V72.25H488.75V156.917ZM395.833 156.917H311.167V72.25H395.75L395.833 156.917ZM302.833 156.917H218.25V72.25H302.833V156.917ZM209.917 156.917H125.25V72.25H209.833L209.917 156.917ZM116.917 156.917H32.3334V72.25H116.917V156.917ZM24 156.917H-60.6667V72.25H23.9167V156.917H24ZM-60.6667 444.083H23.9167V528.667H-60.6667V444.083ZM32.3334 444.083H116.917V528.667H32.3334V444.083ZM125.25 444.083H209.833V528.667H125.25V444.083ZM218.25 444.083H302.833V528.667H218.25V444.083ZM311.167 444.083H395.75V528.667H311.167V444.083ZM404.167 444.083H488.75V528.667H404.167V444.083ZM497.083 444.083H581.667V528.667H497.083V444.083ZM590.083 444.083H674.667V528.667H590.083V444.083ZM683 444.083H767.583V528.667H683V444.083ZM776 444.083H860.583V528.667H776V444.083ZM860.583 63.9167H776V-20.6667H860.583V63.9167ZM767.667 63.9167H683.083V-20.6667H767.667V63.9167ZM674.667 63.9167H590.083V-20.6667H674.667V63.9167ZM581.75 63.9167H497.167V-20.6667H581.75V63.9167ZM488.75 63.9167H404.167V-20.6667H488.75V63.9167ZM395.833 63.9167H311.167V-20.6667H395.75L395.833 63.9167ZM302.833 63.9167H218.25V-20.6667H302.833V63.9167ZM209.917 63.9167H125.25V-20.6667H209.833L209.917 63.9167ZM116.917 63.9167H32.3334V-20.6667H116.917V63.9167ZM-60.6667 -20.6667H23.9167V63.9167H-60.6667V-20.6667ZM-60.6667 537.083H23.9167V621.667H-60.6667V537.083ZM32.3334 537.083H116.917V621.667H32.3334V537.083ZM125.25 537.083H209.833V621.667H125.25V537.083ZM218.25 537.083H302.833V621.667H218.25V537.083ZM311.167 537.083H395.75V621.667H311.167V537.083ZM404.167 537.083H488.75V621.667H404.167V537.083ZM497.083 537.083H581.667V621.667H497.083V537.083ZM590.083 537.083H674.667V621.667H590.083V537.083ZM683 537.083H767.583V621.667H683V537.083ZM860.583 621.667H776V537.083H860.583V621.667Z" fill="#B3D6C5"/>
</g>
<path d="M296.616 418.699L351.457 239.161C352.256 236.769 353.792 234.691 355.844 233.225C357.896 231.759 360.36 230.981 362.882 231L687.355 240.14C688.618 240.154 689.86 240.457 690.986 241.028C692.112 241.598 693.092 242.42 693.85 243.43C694.607 244.44 695.122 245.611 695.354 246.852C695.587 248.093 695.53 249.371 695.189 250.586L631.535 469.622C630.766 472.296 629.05 474.599 626.707 476.101C624.365 477.603 621.556 478.2 618.804 477.783L303.798 429.144C302.575 429.079 301.383 428.733 300.314 428.134C299.246 427.535 298.33 426.699 297.636 425.689C296.942 424.68 296.489 423.525 296.312 422.313C296.135 421.101 296.239 419.864 296.616 418.699Z" fill="#22272E"/>
<path d="M293.678 427.839L105 445.466L428.494 525.116C436.316 527.078 444.502 527.078 452.324 525.116L627.944 479.742L293.678 427.839Z" fill="#63737A"/>
<path d="M428.82 525.116L105.326 445.466C105.348 448.451 106.35 451.346 108.179 453.706C110.007 456.065 112.561 457.758 115.446 458.524L420.333 539.479C433.203 542.855 446.754 542.629 459.505 538.826L619.457 491.82C622.135 491.05 624.484 489.416 626.137 487.172C627.79 484.929 628.655 482.201 628.597 479.415L452.976 524.789C445.092 527.013 436.762 527.125 428.82 525.116Z" fill="#22272E"/>
<path d="M377 316L491 324.5" stroke="#95DCBA" stroke-width="5.87577" stroke-linecap="round" stroke-linejoin="round"/>
<path d="M357 382L459 390.5" stroke="#ABACEC" stroke-width="5.87577" stroke-linecap="round" stroke-linejoin="round"/>
<path d="M372 331L459 338" stroke="#63737A" stroke-width="5.87577" stroke-linecap="round" stroke-linejoin="round"/>
<path d="M352 397L439 405" stroke="#63737A" stroke-width="5.87577" stroke-linecap="round" stroke-linejoin="round"/>
<path d="M368 345L439 351.5" stroke="#63737A" stroke-width="5.87577" stroke-linecap="round" stroke-linejoin="round"/>
<path d="M347 411L407 417.5" stroke="#63737A" stroke-width="5.87577" stroke-linecap="round" stroke-linejoin="round"/>
<path d="M382.003 274.704C383.768 268.988 389.17 265.185 395.146 265.451L621.692 275.517C630.478 275.907 636.553 284.457 634.03 292.882C632.25 298.826 626.648 302.793 620.45 302.498L393.937 291.711C385.358 291.303 379.469 282.91 382.003 274.704Z" fill="#D9D9D9"/>
<path d="M593.5 274L624.843 275.574C632.542 275.961 638.346 282.719 637.565 290.388C636.845 297.473 630.732 302.772 623.616 302.481L587.5 301L593.5 274Z" fill="#E95838"/>
<circle cx="614" cy="287" r="6" stroke="#22272E" stroke-width="2"/>
<path d="M610 291.5L605 296" stroke="#22272E" stroke-width="2" stroke-linecap="round"/>
<path d="M231.673 303.154C231.674 300.193 230.797 297.298 229.153 294.835C227.509 292.373 225.172 290.453 222.436 289.319C219.701 288.185 216.691 287.887 213.786 288.464C210.882 289.041 208.214 290.466 206.12 292.56C204.025 294.653 202.599 297.32 202.021 300.224C201.442 303.129 201.738 306.139 202.871 308.875C204.004 311.611 205.923 313.949 208.385 315.594C210.847 317.24 213.742 318.118 216.703 318.118C218.674 318.138 220.629 317.764 222.453 317.019C224.278 316.274 225.936 315.173 227.33 313.78C228.724 312.386 229.826 310.729 230.572 308.904C231.318 307.08 231.692 305.125 231.673 303.154Z" fill="#6DAFA7"/>
<path d="M295.85 143.752C296.698 155.667 295.104 167.629 291.165 178.906C287.226 190.183 281.026 200.537 272.943 209.332C256.23 227.425 246.964 251.159 246.998 275.789V291.191C246.949 295.261 245.309 299.151 242.43 302.029C239.551 304.907 235.66 306.545 231.589 306.592H186.699C182.629 306.543 178.74 304.905 175.862 302.027C172.985 299.149 171.346 295.26 171.297 291.191V275.789C171.297 251.137 162.054 227.375 145.332 209.764C130.271 193.653 121.926 172.401 122 150.347C122 100.181 164.695 59.6902 215.332 63.2138C258 65.8548 292.771 100.619 295.85 143.752Z" fill="#F8AB5D"/>
<path d="M306.85 138.752C307.698 150.667 306.104 162.629 302.165 173.906C298.226 185.183 292.026 195.537 283.943 204.332C267.23 222.425 257.964 246.159 257.998 270.789V286.191C257.949 290.261 256.309 294.151 253.43 297.029C250.551 299.907 246.66 301.545 242.589 301.592H197.699C193.629 301.543 189.74 299.905 186.862 297.027C183.985 294.149 182.346 290.26 182.297 286.191V270.789C182.297 246.137 173.054 222.375 156.332 204.764C141.271 188.653 132.926 167.401 133 145.347C133 95.1814 175.695 54.6902 226.332 58.2138C269 60.8548 303.771 95.6193 306.85 138.752Z" fill="#FFE779"/>
<path d="M181.859 270.789H257.553" stroke="#22272E" stroke-width="7.92307" stroke-linecap="round" stroke-linejoin="round"/>
<path d="M181.859 285.753H257.553" stroke="#22272E" stroke-width="7.92307" stroke-linecap="round" stroke-linejoin="round"/>
<path d="M211.787 270.789V150.191C211.787 139.183 199.464 132.587 190.227 138.738C183.18 143.582 182.304 154.139 188.88 160.297L194.162 165.141" stroke="#22272E" stroke-width="7.92307" stroke-linecap="round" stroke-linejoin="round"/>
<path d="M227.626 270.789V150.191C227.626 139.183 239.949 132.587 249.185 138.738C256.226 143.582 257.108 154.139 250.533 160.297L245.251 165.141" stroke="#22272E" stroke-width="7.92307" stroke-linecap="round" stroke-linejoin="round"/>
</svg>
