<svg width="800" height="600" viewBox="0 0 800 600" fill="none" xmlns="http://www.w3.org/2000/svg">
<mask id="mask0_100_5" style="mask-type:alpha" maskUnits="userSpaceOnUse" x="0" y="0" width="800" height="600">
<rect width="800" height="600" fill="#D9D9D9"/>
</mask>
<g mask="url(#mask0_100_5)">
<g opacity="0.25">
<path d="M780.411 63.6418C784.555 63.6418 787.915 60.2819 787.915 56.1373C787.915 51.9927 784.555 48.6328 780.411 48.6328C776.266 48.6328 772.906 51.9927 772.906 56.1373C772.906 60.2819 776.266 63.6418 780.411 63.6418Z" fill="#C4C5E1"/>
<path d="M780.411 129.682C784.555 129.682 787.915 126.322 787.915 122.177C787.915 118.033 784.555 114.673 780.411 114.673C776.266 114.673 772.906 118.033 772.906 122.177C772.906 126.322 776.266 129.682 780.411 129.682Z" fill="#C4C5E1"/>
<path d="M780.411 195.721C784.555 195.721 787.915 192.361 787.915 188.216C787.915 184.072 784.555 180.712 780.411 180.712C776.266 180.712 772.906 184.072 772.906 188.216C772.906 192.361 776.266 195.721 780.411 195.721Z" fill="#C4C5E1"/>
<path d="M780.411 261.761C784.555 261.761 787.915 258.401 787.915 254.257C787.915 250.112 784.555 246.752 780.411 246.752C776.266 246.752 772.906 250.112 772.906 254.257C772.906 258.401 776.266 261.761 780.411 261.761Z" fill="#C4C5E1"/>
<path d="M780.411 327.801C784.555 327.801 787.915 324.442 787.915 320.297C787.915 316.152 784.555 312.792 780.411 312.792C776.266 312.792 772.906 316.152 772.906 320.297C772.906 324.442 776.266 327.801 780.411 327.801Z" fill="#C4C5E1"/>
<path d="M714.371 63.6418C718.515 63.6418 721.875 60.2819 721.875 56.1373C721.875 51.9927 718.515 48.6328 714.371 48.6328C710.226 48.6328 706.866 51.9927 706.866 56.1373C706.866 60.2819 710.226 63.6418 714.371 63.6418Z" fill="#C4C5E1"/>
<path d="M714.371 129.682C718.515 129.682 721.875 126.322 721.875 122.177C721.875 118.033 718.515 114.673 714.371 114.673C710.226 114.673 706.866 118.033 706.866 122.177C706.866 126.322 710.226 129.682 714.371 129.682Z" fill="#C4C5E1"/>
<path d="M714.371 195.721C718.515 195.721 721.875 192.361 721.875 188.216C721.875 184.072 718.515 180.712 714.371 180.712C710.226 180.712 706.866 184.072 706.866 188.216C706.866 192.361 710.226 195.721 714.371 195.721Z" fill="#C4C5E1"/>
<path d="M714.371 261.761C718.515 261.761 721.875 258.401 721.875 254.257C721.875 250.112 718.515 246.752 714.371 246.752C710.226 246.752 706.866 250.112 706.866 254.257C706.866 258.401 710.226 261.761 714.371 261.761Z" fill="#C4C5E1"/>
<path d="M714.371 327.801C718.515 327.801 721.875 324.442 721.875 320.297C721.875 316.152 718.515 312.792 714.371 312.792C710.226 312.792 706.866 316.152 706.866 320.297C706.866 324.442 710.226 327.801 714.371 327.801Z" fill="#C4C5E1"/>
<path d="M714.371 393.841C718.515 393.841 721.875 390.481 721.875 386.336C721.875 382.191 718.515 378.832 714.371 378.832C710.226 378.832 706.866 382.191 706.866 386.336C706.866 390.481 710.226 393.841 714.371 393.841Z" fill="#C4C5E1"/>
<path d="M714.371 459.881C718.515 459.881 721.875 456.521 721.875 452.376C721.875 448.232 718.515 444.872 714.371 444.872C710.226 444.872 706.866 448.232 706.866 452.376C706.866 456.521 710.226 459.881 714.371 459.881Z" fill="#C4C5E1"/>
<path d="M714.371 525.921C718.515 525.921 721.875 522.561 721.875 518.416C721.875 514.272 718.515 510.912 714.371 510.912C710.226 510.912 706.866 514.272 706.866 518.416C706.866 522.561 710.226 525.921 714.371 525.921Z" fill="#C4C5E1"/>
<path d="M648.332 63.6418C652.476 63.6418 655.836 60.2819 655.836 56.1373C655.836 51.9927 652.476 48.6328 648.332 48.6328C644.187 48.6328 640.827 51.9927 640.827 56.1373C640.827 60.2819 644.187 63.6418 648.332 63.6418Z" fill="#C4C5E1"/>
<path d="M648.332 129.682C652.476 129.682 655.836 126.322 655.836 122.177C655.836 118.033 652.476 114.673 648.332 114.673C644.187 114.673 640.827 118.033 640.827 122.177C640.827 126.322 644.187 129.682 648.332 129.682Z" fill="#C4C5E1"/>
<path d="M648.332 195.721C652.476 195.721 655.836 192.361 655.836 188.216C655.836 184.072 652.476 180.712 648.332 180.712C644.187 180.712 640.827 184.072 640.827 188.216C640.827 192.361 644.187 195.721 648.332 195.721Z" fill="#C4C5E1"/>
<path d="M648.332 261.761C652.476 261.761 655.836 258.401 655.836 254.257C655.836 250.112 652.476 246.752 648.332 246.752C644.187 246.752 640.827 250.112 640.827 254.257C640.827 258.401 644.187 261.761 648.332 261.761Z" fill="#C4C5E1"/>
<path d="M648.332 327.801C652.476 327.801 655.836 324.442 655.836 320.297C655.836 316.152 652.476 312.792 648.332 312.792C644.187 312.792 640.827 316.152 640.827 320.297C640.827 324.442 644.187 327.801 648.332 327.801Z" fill="#C4C5E1"/>
<path d="M648.332 393.841C652.476 393.841 655.836 390.481 655.836 386.336C655.836 382.192 652.476 378.832 648.332 378.832C644.187 378.832 640.827 382.192 640.827 386.336C640.827 390.481 644.187 393.841 648.332 393.841Z" fill="#C4C5E1"/>
<path d="M648.332 459.881C652.476 459.881 655.836 456.521 655.836 452.377C655.836 448.232 652.476 444.872 648.332 444.872C644.187 444.872 640.827 448.232 640.827 452.377C640.827 456.521 644.187 459.881 648.332 459.881Z" fill="#C4C5E1"/>
<path d="M648.332 525.921C652.476 525.921 655.836 522.561 655.836 518.416C655.836 514.272 652.476 510.912 648.332 510.912C644.187 510.912 640.827 514.272 640.827 518.416C640.827 522.561 644.187 525.921 648.332 525.921Z" fill="#C4C5E1"/>
<path d="M648.332 591.96C652.476 591.96 655.836 588.6 655.836 584.455C655.836 580.311 652.476 576.951 648.332 576.951C644.187 576.951 640.827 580.311 640.827 584.455C640.827 588.6 644.187 591.96 648.332 591.96Z" fill="#C4C5E1"/>
<path d="M582.294 63.6421C586.438 63.6421 589.798 60.2822 589.798 56.1376C589.798 51.9929 586.438 48.6331 582.294 48.6331C578.149 48.6331 574.789 51.9929 574.789 56.1376C574.789 60.2822 578.149 63.6421 582.294 63.6421Z" fill="#C4C5E1"/>
<path d="M582.294 129.682C586.438 129.682 589.798 126.322 589.798 122.177C589.798 118.032 586.438 114.673 582.294 114.673C578.149 114.673 574.789 118.032 574.789 122.177C574.789 126.322 578.149 129.682 582.294 129.682Z" fill="#C4C5E1"/>
<path d="M582.294 195.721C586.438 195.721 589.798 192.361 589.798 188.216C589.798 184.072 586.438 180.712 582.294 180.712C578.149 180.712 574.789 184.072 574.789 188.216C574.789 192.361 578.149 195.721 582.294 195.721Z" fill="#C4C5E1"/>
<path d="M582.294 261.761C586.438 261.761 589.798 258.401 589.798 254.257C589.798 250.112 586.438 246.752 582.294 246.752C578.149 246.752 574.789 250.112 574.789 254.257C574.789 258.401 578.149 261.761 582.294 261.761Z" fill="#C4C5E1"/>
<path d="M582.294 327.801C586.438 327.801 589.798 324.442 589.798 320.297C589.798 316.152 586.438 312.792 582.294 312.792C578.149 312.792 574.789 316.152 574.789 320.297C574.789 324.442 578.149 327.801 582.294 327.801Z" fill="#C4C5E1"/>
<path d="M582.294 393.841C586.438 393.841 589.798 390.481 589.798 386.336C589.798 382.192 586.438 378.832 582.294 378.832C578.149 378.832 574.789 382.192 574.789 386.336C574.789 390.481 578.149 393.841 582.294 393.841Z" fill="#C4C5E1"/>
<path d="M582.294 459.881C586.438 459.881 589.798 456.521 589.798 452.377C589.798 448.232 586.438 444.872 582.294 444.872C578.149 444.872 574.789 448.232 574.789 452.377C574.789 456.521 578.149 459.881 582.294 459.881Z" fill="#C4C5E1"/>
<path d="M582.295 525.921C586.439 525.921 589.799 522.561 589.799 518.416C589.799 514.272 586.439 510.912 582.295 510.912C578.15 510.912 574.79 514.272 574.79 518.416C574.79 522.561 578.15 525.921 582.295 525.921Z" fill="#C4C5E1"/>
<path d="M582.294 591.96C586.438 591.96 589.798 588.6 589.798 584.455C589.798 580.311 586.438 576.951 582.294 576.951C578.149 576.951 574.789 580.311 574.789 584.455C574.789 588.6 578.149 591.96 582.294 591.96Z" fill="#C4C5E1"/>
<path d="M516.255 63.6418C520.399 63.6418 523.759 60.2819 523.759 56.1373C523.759 51.9927 520.399 48.6328 516.255 48.6328C512.11 48.6328 508.75 51.9927 508.75 56.1373C508.75 60.2819 512.11 63.6418 516.255 63.6418Z" fill="#C4C5E1"/>
<path d="M516.255 129.681C520.399 129.681 523.759 126.321 523.759 122.177C523.759 118.032 520.399 114.672 516.255 114.672C512.11 114.672 508.75 118.032 508.75 122.177C508.75 126.321 512.11 129.681 516.255 129.681Z" fill="#C4C5E1"/>
<path d="M516.255 195.721C520.399 195.721 523.759 192.361 523.759 188.216C523.759 184.072 520.399 180.712 516.255 180.712C512.11 180.712 508.75 184.072 508.75 188.216C508.75 192.361 512.11 195.721 516.255 195.721Z" fill="#C4C5E1"/>
<path d="M516.255 261.761C520.399 261.761 523.759 258.401 523.759 254.257C523.759 250.112 520.399 246.752 516.255 246.752C512.11 246.752 508.75 250.112 508.75 254.257C508.75 258.401 512.11 261.761 516.255 261.761Z" fill="#C4C5E1"/>
<path d="M516.255 327.801C520.399 327.801 523.759 324.441 523.759 320.297C523.759 316.152 520.399 312.792 516.255 312.792C512.11 312.792 508.75 316.152 508.75 320.297C508.75 324.441 512.11 327.801 516.255 327.801Z" fill="#C4C5E1"/>
<path d="M516.255 393.841C520.399 393.841 523.759 390.481 523.759 386.336C523.759 382.191 520.399 378.832 516.255 378.832C512.11 378.832 508.75 382.191 508.75 386.336C508.75 390.481 512.11 393.841 516.255 393.841Z" fill="#C4C5E1"/>
<path d="M516.255 459.881C520.399 459.881 523.759 456.521 523.759 452.376C523.759 448.232 520.399 444.872 516.255 444.872C512.11 444.872 508.75 448.232 508.75 452.376C508.75 456.521 512.11 459.881 516.255 459.881Z" fill="#C4C5E1"/>
<path d="M516.255 525.921C520.399 525.921 523.759 522.561 523.759 518.416C523.759 514.272 520.399 510.912 516.255 510.912C512.11 510.912 508.75 514.272 508.75 518.416C508.75 522.561 512.11 525.921 516.255 525.921Z" fill="#C4C5E1"/>
<path d="M516.255 591.96C520.399 591.96 523.759 588.6 523.759 584.455C523.759 580.311 520.399 576.951 516.255 576.951C512.11 576.951 508.75 580.311 508.75 584.455C508.75 588.6 512.11 591.96 516.255 591.96Z" fill="#C4C5E1"/>
<path d="M450.217 63.6418C454.362 63.6418 457.722 60.2819 457.722 56.1373C457.722 51.9927 454.362 48.6328 450.217 48.6328C446.073 48.6328 442.713 51.9927 442.713 56.1373C442.713 60.2819 446.073 63.6418 450.217 63.6418Z" fill="#C4C5E1"/>
<path d="M450.217 129.682C454.362 129.682 457.722 126.322 457.722 122.177C457.722 118.033 454.362 114.673 450.217 114.673C446.073 114.673 442.713 118.033 442.713 122.177C442.713 126.322 446.073 129.682 450.217 129.682Z" fill="#C4C5E1"/>
<path d="M450.217 195.721C454.362 195.721 457.722 192.361 457.722 188.216C457.722 184.072 454.362 180.712 450.217 180.712C446.073 180.712 442.713 184.072 442.713 188.216C442.713 192.361 446.073 195.721 450.217 195.721Z" fill="#C4C5E1"/>
<path d="M450.217 261.761C454.362 261.761 457.722 258.401 457.722 254.257C457.722 250.112 454.362 246.752 450.217 246.752C446.073 246.752 442.713 250.112 442.713 254.257C442.713 258.401 446.073 261.761 450.217 261.761Z" fill="#C4C5E1"/>
<path d="M450.217 327.801C454.362 327.801 457.722 324.442 457.722 320.297C457.722 316.152 454.362 312.792 450.217 312.792C446.073 312.792 442.713 316.152 442.713 320.297C442.713 324.442 446.073 327.801 450.217 327.801Z" fill="#C4C5E1"/>
<path d="M450.217 393.841C454.362 393.841 457.722 390.481 457.722 386.336C457.722 382.191 454.362 378.832 450.217 378.832C446.073 378.832 442.713 382.191 442.713 386.336C442.713 390.481 446.073 393.841 450.217 393.841Z" fill="#C4C5E1"/>
<path d="M450.217 459.881C454.362 459.881 457.722 456.521 457.722 452.376C457.722 448.232 454.362 444.872 450.217 444.872C446.073 444.872 442.713 448.232 442.713 452.376C442.713 456.521 446.073 459.881 450.217 459.881Z" fill="#C4C5E1"/>
<path d="M450.217 525.921C454.362 525.921 457.722 522.561 457.722 518.416C457.722 514.272 454.362 510.912 450.217 510.912C446.073 510.912 442.713 514.272 442.713 518.416C442.713 522.561 446.073 525.921 450.217 525.921Z" fill="#C4C5E1"/>
<path d="M450.217 591.96C454.362 591.96 457.722 588.6 457.722 584.455C457.722 580.311 454.362 576.951 450.217 576.951C446.073 576.951 442.713 580.311 442.713 584.455C442.713 588.6 446.073 591.96 450.217 591.96Z" fill="#C4C5E1"/>
<path d="M384.171 63.6418C388.316 63.6418 391.676 60.2819 391.676 56.1373C391.676 51.9927 388.316 48.6328 384.171 48.6328C380.027 48.6328 376.667 51.9927 376.667 56.1373C376.667 60.2819 380.027 63.6418 384.171 63.6418Z" fill="#C4C5E1"/>
<path d="M384.171 129.682C388.316 129.682 391.676 126.322 391.676 122.177C391.676 118.033 388.316 114.673 384.171 114.673C380.027 114.673 376.667 118.033 376.667 122.177C376.667 126.322 380.027 129.682 384.171 129.682Z" fill="#C4C5E1"/>
<path d="M384.171 195.721C388.316 195.721 391.676 192.361 391.676 188.216C391.676 184.072 388.316 180.712 384.171 180.712C380.027 180.712 376.667 184.072 376.667 188.216C376.667 192.361 380.027 195.721 384.171 195.721Z" fill="#C4C5E1"/>
<path d="M384.171 261.761C388.316 261.761 391.676 258.401 391.676 254.257C391.676 250.112 388.316 246.752 384.171 246.752C380.027 246.752 376.667 250.112 376.667 254.257C376.667 258.401 380.027 261.761 384.171 261.761Z" fill="#C4C5E1"/>
<path d="M384.171 327.801C388.316 327.801 391.676 324.442 391.676 320.297C391.676 316.152 388.316 312.792 384.171 312.792C380.027 312.792 376.667 316.152 376.667 320.297C376.667 324.442 380.027 327.801 384.171 327.801Z" fill="#C4C5E1"/>
<path d="M384.171 393.841C388.316 393.841 391.676 390.481 391.676 386.336C391.676 382.191 388.316 378.832 384.171 378.832C380.027 378.832 376.667 382.191 376.667 386.336C376.667 390.481 380.027 393.841 384.171 393.841Z" fill="#C4C5E1"/>
<path d="M384.171 459.881C388.316 459.881 391.676 456.521 391.676 452.376C391.676 448.232 388.316 444.872 384.171 444.872C380.027 444.872 376.667 448.232 376.667 452.376C376.667 456.521 380.027 459.881 384.171 459.881Z" fill="#C4C5E1"/>
<path d="M384.171 525.921C388.316 525.921 391.676 522.561 391.676 518.416C391.676 514.272 388.316 510.912 384.171 510.912C380.027 510.912 376.667 514.272 376.667 518.416C376.667 522.561 380.027 525.921 384.171 525.921Z" fill="#C4C5E1"/>
<path d="M384.171 591.96C388.316 591.96 391.676 588.6 391.676 584.455C391.676 580.311 388.316 576.951 384.171 576.951C380.027 576.951 376.667 580.311 376.667 584.455C376.667 588.6 380.027 591.96 384.171 591.96Z" fill="#C4C5E1"/>
<path d="M318.133 63.6418C322.278 63.6418 325.638 60.2819 325.638 56.1373C325.638 51.9927 322.278 48.6328 318.133 48.6328C313.989 48.6328 310.629 51.9927 310.629 56.1373C310.629 60.2819 313.989 63.6418 318.133 63.6418Z" fill="#C4C5E1"/>
<path d="M318.133 129.682C322.278 129.682 325.638 126.322 325.638 122.177C325.638 118.033 322.278 114.673 318.133 114.673C313.989 114.673 310.629 118.033 310.629 122.177C310.629 126.322 313.989 129.682 318.133 129.682Z" fill="#C4C5E1"/>
<path d="M318.133 195.721C322.278 195.721 325.638 192.361 325.638 188.216C325.638 184.072 322.278 180.712 318.133 180.712C313.989 180.712 310.629 184.072 310.629 188.216C310.629 192.361 313.989 195.721 318.133 195.721Z" fill="#C4C5E1"/>
<path d="M318.133 261.761C322.278 261.761 325.638 258.401 325.638 254.257C325.638 250.112 322.278 246.752 318.133 246.752C313.989 246.752 310.629 250.112 310.629 254.257C310.629 258.401 313.989 261.761 318.133 261.761Z" fill="#C4C5E1"/>
<path d="M318.133 327.801C322.278 327.801 325.638 324.442 325.638 320.297C325.638 316.152 322.278 312.792 318.133 312.792C313.989 312.792 310.629 316.152 310.629 320.297C310.629 324.442 313.989 327.801 318.133 327.801Z" fill="#C4C5E1"/>
<path d="M318.133 393.841C322.278 393.841 325.638 390.481 325.638 386.336C325.638 382.191 322.278 378.832 318.133 378.832C313.989 378.832 310.629 382.191 310.629 386.336C310.629 390.481 313.989 393.841 318.133 393.841Z" fill="#C4C5E1"/>
<path d="M318.133 459.881C322.278 459.881 325.638 456.521 325.638 452.376C325.638 448.232 322.278 444.872 318.133 444.872C313.989 444.872 310.629 448.232 310.629 452.376C310.629 456.521 313.989 459.881 318.133 459.881Z" fill="#C4C5E1"/>
<path d="M318.133 525.921C322.278 525.921 325.638 522.561 325.638 518.416C325.638 514.272 322.278 510.912 318.133 510.912C313.989 510.912 310.629 514.272 310.629 518.416C310.629 522.561 313.989 525.921 318.133 525.921Z" fill="#C4C5E1"/>
<path d="M318.133 591.96C322.278 591.96 325.638 588.6 325.638 584.455C325.638 580.311 322.278 576.951 318.133 576.951C313.989 576.951 310.629 580.311 310.629 584.455C310.629 588.6 313.989 591.96 318.133 591.96Z" fill="#C4C5E1"/>
<path d="M252.096 63.6418C256.241 63.6418 259.601 60.2819 259.601 56.1373C259.601 51.9927 256.241 48.6328 252.096 48.6328C247.952 48.6328 244.592 51.9927 244.592 56.1373C244.592 60.2819 247.952 63.6418 252.096 63.6418Z" fill="#C4C5E1"/>
<path d="M252.096 129.682C256.241 129.682 259.601 126.322 259.601 122.177C259.601 118.033 256.241 114.673 252.096 114.673C247.952 114.673 244.592 118.033 244.592 122.177C244.592 126.322 247.952 129.682 252.096 129.682Z" fill="#C4C5E1"/>
<path d="M252.096 195.721C256.241 195.721 259.601 192.361 259.601 188.216C259.601 184.072 256.241 180.712 252.096 180.712C247.952 180.712 244.592 184.072 244.592 188.216C244.592 192.361 247.952 195.721 252.096 195.721Z" fill="#C4C5E1"/>
<path d="M252.096 261.761C256.241 261.761 259.601 258.401 259.601 254.257C259.601 250.112 256.241 246.752 252.096 246.752C247.952 246.752 244.592 250.112 244.592 254.257C244.592 258.401 247.952 261.761 252.096 261.761Z" fill="#C4C5E1"/>
<path d="M252.096 327.801C256.241 327.801 259.601 324.442 259.601 320.297C259.601 316.152 256.241 312.792 252.096 312.792C247.952 312.792 244.592 316.152 244.592 320.297C244.592 324.442 247.952 327.801 252.096 327.801Z" fill="#C4C5E1"/>
<path d="M252.096 393.841C256.241 393.841 259.601 390.481 259.601 386.336C259.601 382.191 256.241 378.832 252.096 378.832C247.952 378.832 244.592 382.191 244.592 386.336C244.592 390.481 247.952 393.841 252.096 393.841Z" fill="#C4C5E1"/>
<path d="M252.096 459.881C256.241 459.881 259.601 456.521 259.601 452.376C259.601 448.232 256.241 444.872 252.096 444.872C247.952 444.872 244.592 448.232 244.592 452.376C244.592 456.521 247.952 459.881 252.096 459.881Z" fill="#C4C5E1"/>
<path d="M252.096 525.921C256.241 525.921 259.601 522.561 259.601 518.416C259.601 514.272 256.241 510.912 252.096 510.912C247.952 510.912 244.592 514.272 244.592 518.416C244.592 522.561 247.952 525.921 252.096 525.921Z" fill="#C4C5E1"/>
<path d="M252.096 591.96C256.241 591.96 259.601 588.6 259.601 584.455C259.601 580.311 256.241 576.951 252.096 576.951C247.952 576.951 244.592 580.311 244.592 584.455C244.592 588.6 247.952 591.96 252.096 591.96Z" fill="#C4C5E1"/>
<path d="M186.055 63.6421C190.2 63.6421 193.56 60.2822 193.56 56.1376C193.56 51.9929 190.2 48.6331 186.055 48.6331C181.911 48.6331 178.551 51.9929 178.551 56.1376C178.551 60.2822 181.911 63.6421 186.055 63.6421Z" fill="#C4C5E1"/>
<path d="M186.055 129.682C190.2 129.682 193.56 126.322 193.56 122.177C193.56 118.032 190.2 114.673 186.055 114.673C181.911 114.673 178.551 118.032 178.551 122.177C178.551 126.322 181.911 129.682 186.055 129.682Z" fill="#C4C5E1"/>
<path d="M186.055 195.721C190.2 195.721 193.56 192.361 193.56 188.216C193.56 184.072 190.2 180.712 186.055 180.712C181.911 180.712 178.551 184.072 178.551 188.216C178.551 192.361 181.911 195.721 186.055 195.721Z" fill="#C4C5E1"/>
<path d="M186.055 261.761C190.2 261.761 193.56 258.401 193.56 254.257C193.56 250.112 190.2 246.752 186.055 246.752C181.911 246.752 178.551 250.112 178.551 254.257C178.551 258.401 181.911 261.761 186.055 261.761Z" fill="#C4C5E1"/>
<path d="M186.055 327.801C190.2 327.801 193.56 324.442 193.56 320.297C193.56 316.152 190.2 312.792 186.055 312.792C181.911 312.792 178.551 316.152 178.551 320.297C178.551 324.442 181.911 327.801 186.055 327.801Z" fill="#C4C5E1"/>
<path d="M186.055 393.841C190.2 393.841 193.56 390.481 193.56 386.336C193.56 382.192 190.2 378.832 186.055 378.832C181.911 378.832 178.551 382.192 178.551 386.336C178.551 390.481 181.911 393.841 186.055 393.841Z" fill="#C4C5E1"/>
<path d="M186.055 459.881C190.2 459.881 193.56 456.521 193.56 452.377C193.56 448.232 190.2 444.872 186.055 444.872C181.911 444.872 178.551 448.232 178.551 452.377C178.551 456.521 181.911 459.881 186.055 459.881Z" fill="#C4C5E1"/>
<path d="M186.055 525.921C190.2 525.921 193.56 522.561 193.56 518.416C193.56 514.271 190.2 510.911 186.055 510.911C181.911 510.911 178.551 514.271 178.551 518.416C178.551 522.561 181.911 525.921 186.055 525.921Z" fill="#C4C5E1"/>
<path d="M186.055 591.96C190.2 591.96 193.56 588.6 193.56 584.455C193.56 580.311 190.2 576.951 186.055 576.951C181.911 576.951 178.551 580.311 178.551 584.455C178.551 588.6 181.911 591.96 186.055 591.96Z" fill="#C4C5E1"/>
<path d="M120.014 63.6418C124.159 63.6418 127.519 60.2819 127.519 56.1373C127.519 51.9927 124.159 48.6328 120.014 48.6328C115.87 48.6328 112.51 51.9927 112.51 56.1373C112.51 60.2819 115.87 63.6418 120.014 63.6418Z" fill="#C4C5E1"/>
<path d="M120.014 129.682C124.159 129.682 127.519 126.322 127.519 122.177C127.519 118.033 124.159 114.673 120.014 114.673C115.87 114.673 112.51 118.033 112.51 122.177C112.51 126.322 115.87 129.682 120.014 129.682Z" fill="#C4C5E1"/>
<path d="M120.014 195.721C124.159 195.721 127.519 192.361 127.519 188.216C127.519 184.072 124.159 180.712 120.014 180.712C115.87 180.712 112.51 184.072 112.51 188.216C112.51 192.361 115.87 195.721 120.014 195.721Z" fill="#C4C5E1"/>
<path d="M120.014 261.761C124.159 261.761 127.519 258.401 127.519 254.257C127.519 250.112 124.159 246.752 120.014 246.752C115.87 246.752 112.51 250.112 112.51 254.257C112.51 258.401 115.87 261.761 120.014 261.761Z" fill="#C4C5E1"/>
<path d="M120.014 327.801C124.159 327.801 127.519 324.442 127.519 320.297C127.519 316.152 124.159 312.792 120.014 312.792C115.87 312.792 112.51 316.152 112.51 320.297C112.51 324.442 115.87 327.801 120.014 327.801Z" fill="#C4C5E1"/>
<path d="M120.014 393.841C124.159 393.841 127.519 390.481 127.519 386.336C127.519 382.191 124.159 378.832 120.014 378.832C115.87 378.832 112.51 382.191 112.51 386.336C112.51 390.481 115.87 393.841 120.014 393.841Z" fill="#C4C5E1"/>
<path d="M120.014 459.881C124.159 459.881 127.519 456.521 127.519 452.376C127.519 448.232 124.159 444.872 120.014 444.872C115.87 444.872 112.51 448.232 112.51 452.376C112.51 456.521 115.87 459.881 120.014 459.881Z" fill="#C4C5E1"/>
<path d="M120.014 525.921C124.159 525.921 127.519 522.561 127.519 518.416C127.519 514.272 124.159 510.912 120.014 510.912C115.87 510.912 112.51 514.272 112.51 518.416C112.51 522.561 115.87 525.921 120.014 525.921Z" fill="#C4C5E1"/>
<path d="M120.014 591.96C124.159 591.96 127.519 588.6 127.519 584.455C127.519 580.311 124.159 576.951 120.014 576.951C115.87 576.951 112.51 580.311 112.51 584.455C112.51 588.6 115.87 591.96 120.014 591.96Z" fill="#C4C5E1"/>
<path d="M53.9791 195.721C58.1238 195.721 61.4837 192.361 61.4837 188.216C61.4837 184.072 58.1238 180.712 53.9791 180.712C49.8345 180.712 46.4746 184.072 46.4746 188.216C46.4746 192.361 49.8345 195.721 53.9791 195.721Z" fill="#C4C5E1"/>
<path d="M53.9791 261.761C58.1238 261.761 61.4837 258.401 61.4837 254.257C61.4837 250.112 58.1238 246.752 53.9791 246.752C49.8345 246.752 46.4746 250.112 46.4746 254.257C46.4746 258.401 49.8345 261.761 53.9791 261.761Z" fill="#C4C5E1"/>
<path d="M53.9791 327.802C58.1238 327.802 61.4837 324.442 61.4837 320.297C61.4837 316.153 58.1238 312.793 53.9791 312.793C49.8345 312.793 46.4746 316.153 46.4746 320.297C46.4746 324.442 49.8345 327.802 53.9791 327.802Z" fill="#C4C5E1"/>
<path d="M53.9791 393.841C58.1238 393.841 61.4837 390.481 61.4837 386.336C61.4837 382.192 58.1238 378.832 53.9791 378.832C49.8345 378.832 46.4746 382.192 46.4746 386.336C46.4746 390.481 49.8345 393.841 53.9791 393.841Z" fill="#C4C5E1"/>
<path d="M53.9791 459.881C58.1238 459.881 61.4837 456.521 61.4837 452.377C61.4837 448.232 58.1238 444.872 53.9791 444.872C49.8345 444.872 46.4746 448.232 46.4746 452.377C46.4746 456.521 49.8345 459.881 53.9791 459.881Z" fill="#C4C5E1"/>
<path d="M53.9791 525.921C58.1238 525.921 61.4837 522.561 61.4837 518.416C61.4837 514.271 58.1238 510.911 53.9791 510.911C49.8345 510.911 46.4746 514.271 46.4746 518.416C46.4746 522.561 49.8345 525.921 53.9791 525.921Z" fill="#C4C5E1"/>
<path d="M53.9791 591.96C58.1238 591.96 61.4837 588.6 61.4837 584.455C61.4837 580.311 58.1238 576.951 53.9791 576.951C49.8345 576.951 46.4746 580.311 46.4746 584.455C46.4746 588.6 49.8345 591.96 53.9791 591.96Z" fill="#C4C5E1"/>
</g>
</g>
<path d="M684.178 503.844L461.485 477.845C458.332 477.485 455.441 475.919 453.417 473.474C451.394 471.029 450.396 467.896 450.633 464.732L467.815 222.369C468.04 219.484 469.274 216.77 471.299 214.703C473.325 212.636 476.013 211.348 478.893 211.065L710.856 186.648C712.271 186.487 713.704 186.644 715.05 187.107C716.397 187.569 717.624 188.326 718.641 189.322C719.659 190.318 720.442 191.528 720.933 192.864C721.424 194.201 721.612 195.63 721.482 197.048L695.03 495.027C694.728 497.621 693.425 499.996 691.397 501.643C689.37 503.29 686.78 504.08 684.178 503.844Z" fill="#63737A"/>
<path d="M674.457 503.844L450.633 477.618C447.48 477.259 444.589 475.693 442.566 473.248C440.543 470.803 439.545 467.67 439.781 464.506L456.964 220.787C457.181 217.876 458.406 215.133 460.428 213.028C462.45 210.924 465.143 209.59 468.042 209.256L701.135 184.613C702.55 184.453 703.982 184.609 705.329 185.072C706.676 185.535 707.902 186.291 708.92 187.287C709.938 188.283 710.72 189.493 711.212 190.83C711.703 192.166 711.891 193.595 711.761 195.013L685.309 494.575C685.243 495.91 684.905 497.217 684.315 498.416C683.726 499.615 682.898 500.682 681.882 501.55C680.866 502.418 679.683 503.069 678.406 503.463C677.129 503.858 675.786 503.988 674.457 503.844Z" fill="#22272E"/>
<path d="M533.833 273.916L478.894 276.629C478.365 276.648 477.838 276.553 477.348 276.352C476.858 276.151 476.417 275.848 476.053 275.463C475.69 275.078 475.412 274.62 475.24 274.119C475.067 273.619 475.002 273.087 475.051 272.56L477.312 239.778C477.37 238.897 477.746 238.068 478.37 237.445C478.994 236.821 479.823 236.445 480.703 236.386L535.867 231.865C536.412 231.824 536.959 231.902 537.471 232.092C537.984 232.282 538.449 232.58 538.835 232.967C539.221 233.353 539.52 233.818 539.71 234.33C539.9 234.842 539.977 235.389 539.937 235.934L537.224 270.525C537.201 271.417 536.836 272.267 536.205 272.898C535.574 273.529 534.725 273.894 533.833 273.916Z" fill="#63737A"/>
<path d="M562.545 298.107L556.441 377.011L467.815 374.298L468.946 357.568L481.154 341.29C481.696 340.541 482.392 339.916 483.195 339.458C483.998 339 484.89 338.718 485.81 338.633C486.731 338.547 487.659 338.659 488.533 338.961C489.406 339.264 490.205 339.749 490.876 340.385C491.616 341.1 492.514 341.63 493.498 341.932C494.481 342.234 495.522 342.3 496.535 342.124C497.549 341.947 498.507 341.534 499.331 340.918C500.154 340.301 500.821 339.499 501.276 338.577L510.998 318.455C511.491 317.458 512.23 316.603 513.144 315.97C514.058 315.336 515.118 314.944 516.224 314.831C517.331 314.719 518.448 314.888 519.471 315.324C520.495 315.76 521.391 316.448 522.076 317.325L533.606 331.794C534.281 332.63 535.15 333.288 536.138 333.71C537.125 334.133 538.201 334.307 539.272 334.218C540.342 334.129 541.375 333.779 542.279 333.199C543.183 332.618 543.931 331.826 544.458 330.89L562.545 298.107Z" fill="#95DCBA"/>
<path d="M476.633 452.749C475.742 452.669 474.916 452.248 474.326 451.574C473.737 450.901 473.43 450.026 473.468 449.132L475.277 423.81C475.357 422.919 475.778 422.093 476.452 421.503C477.125 420.914 478 420.607 478.894 420.645C479.361 420.672 479.817 420.795 480.234 421.007C480.651 421.218 481.02 421.514 481.317 421.875C481.614 422.236 481.834 422.654 481.961 423.104C482.089 423.554 482.122 424.025 482.059 424.489L480.251 449.81C480.221 450.246 480.101 450.671 479.9 451.059C479.699 451.447 479.42 451.79 479.08 452.065C478.741 452.341 478.349 452.544 477.928 452.662C477.507 452.779 477.066 452.809 476.633 452.749Z" fill="#ABACEC"/>
<path d="M506.024 452.071L508.737 416.123C508.817 415.232 509.238 414.406 509.912 413.816C510.585 413.227 511.46 412.92 512.354 412.958H512.806C513.273 412.985 513.729 413.108 514.146 413.32C514.563 413.531 514.932 413.827 515.229 414.188C515.526 414.549 515.746 414.967 515.873 415.417C516.001 415.867 516.035 416.338 515.971 416.802L513.258 452.749C513.231 453.216 513.108 453.672 512.897 454.089C512.685 454.506 512.39 454.874 512.029 455.172C511.668 455.469 511.249 455.688 510.799 455.816C510.35 455.944 509.878 455.977 509.415 455.914H508.963C508.115 455.692 507.365 455.194 506.833 454.498C506.3 453.801 506.015 452.947 506.024 452.071Z" fill="#ABACEC"/>
<path d="M538.58 454.784L542.197 408.889C542.323 407.896 542.805 406.982 543.553 406.316C544.302 405.651 545.266 405.28 546.267 405.271C546.798 405.285 547.319 405.411 547.797 405.641C548.276 405.871 548.7 406.2 549.042 406.606C549.383 407.012 549.635 407.486 549.781 407.996C549.926 408.507 549.961 409.042 549.884 409.567L546.267 455.462C546.237 455.987 546.099 456.5 545.864 456.97C545.628 457.44 545.3 457.857 544.898 458.195C544.496 458.534 544.029 458.787 543.526 458.939C543.023 459.091 542.494 459.139 541.971 459.08C541.014 458.833 540.164 458.279 539.552 457.503C538.939 456.727 538.598 455.772 538.58 454.784Z" fill="#FFE779"/>
<path d="M571.136 457.723L575.884 401.202C576.01 400.208 576.492 399.295 577.24 398.629C577.988 397.964 578.952 397.593 579.954 397.584H580.406C580.936 397.598 581.458 397.724 581.936 397.954C582.415 398.184 582.839 398.513 583.181 398.919C583.522 399.325 583.774 399.799 583.92 400.309C584.065 400.819 584.1 401.355 584.023 401.88L579.275 458.401C579.245 458.926 579.108 459.439 578.872 459.909C578.637 460.379 578.308 460.796 577.906 461.134C577.504 461.473 577.037 461.726 576.534 461.878C576.031 462.03 575.502 462.078 574.98 462.019H574.528C573.523 461.867 572.613 461.339 571.983 460.541C571.353 459.743 571.05 458.736 571.136 457.723Z" fill="#FFE779"/>
<path d="M603.692 460.888L609.344 393.741C609.47 392.748 609.952 391.834 610.7 391.169C611.448 390.504 612.412 390.132 613.413 390.124H614.318C614.848 390.137 615.37 390.263 615.848 390.493C616.327 390.723 616.751 391.052 617.093 391.458C617.434 391.864 617.686 392.338 617.832 392.848C617.977 393.359 618.012 393.894 617.935 394.419L612.283 461.566C612.253 462.091 612.116 462.604 611.88 463.074C611.645 463.544 611.316 463.961 610.914 464.3C610.512 464.638 610.045 464.891 609.542 465.043C609.039 465.195 608.51 465.243 607.988 465.184H607.309C606.277 465.054 605.331 464.54 604.66 463.744C603.99 462.948 603.644 461.928 603.692 460.888Z" fill="#95DCBA"/>
<path d="M640.997 468.123H639.866C638.84 467.979 637.903 467.46 637.236 466.668C636.568 465.875 636.217 464.863 636.249 463.827L642.805 386.054C642.931 385.061 643.413 384.147 644.161 383.482C644.91 382.817 645.874 382.445 646.875 382.437H648.006C648.54 382.466 649.064 382.6 649.547 382.832C650.029 383.063 650.462 383.388 650.819 383.787C651.176 384.186 651.451 384.652 651.627 385.157C651.804 385.663 651.879 386.198 651.849 386.733L645.293 464.506C645.195 465.552 644.69 466.518 643.886 467.194C643.082 467.871 642.044 468.205 640.997 468.123Z" fill="#E95838"/>
<path d="M642.579 308.96L652.301 325.916C644.162 336.768 633.988 343.55 623.362 343.55C602.563 343.55 588.319 317.551 591.032 285.447C593.745 253.343 612.284 225.534 633.536 223.952C644.388 223.047 653.658 229.152 659.988 239.552L647.327 257.412C643.71 251.082 638.058 247.465 631.501 247.691C618.841 248.595 607.31 265.099 605.728 284.769C604.145 304.438 612.962 320.038 625.397 319.812C631.501 319.812 637.606 315.742 642.579 308.96Z" fill="#FFE779"/>
<path d="M667.673 282.508C666.091 299.464 660.439 315.064 652.3 326.142L642.578 309.186C647.92 301.512 651.048 292.518 651.622 283.186C652.623 274.387 650.97 265.49 646.874 257.638L659.534 239.778C665.865 250.177 669.03 265.325 667.673 282.508Z" fill="#ABACEC"/>
<path d="M681.691 209.482C681.917 207.448 681.013 205.865 679.43 205.865C678.612 206.108 677.899 206.619 677.407 207.316C676.915 208.013 676.672 208.856 676.717 209.708C676.491 211.743 677.396 213.326 678.752 213.326C680.109 213.326 681.465 211.743 681.691 209.482Z" fill="#63737A"/>
<path d="M695.483 208.352C695.709 206.317 694.579 204.735 693.222 204.735C692.369 205.022 691.627 205.569 691.1 206.298C690.573 207.028 690.288 207.904 690.283 208.804C690.057 210.839 691.187 212.422 692.544 212.422C693.9 212.422 695.257 210.387 695.483 208.352Z" fill="#63737A"/>
<path d="M127.318 379.381L380.895 365.196C382.424 365.111 383.92 364.718 385.293 364.041C386.666 363.363 387.887 362.416 388.885 361.254C389.883 360.093 390.636 358.742 391.098 357.283C391.561 355.824 391.724 354.286 391.578 352.762L369.863 131.233C369.496 127.706 367.916 124.415 365.393 121.924C362.869 119.433 359.559 117.895 356.028 117.573L90.1925 97.2588C88.5089 97.119 86.8154 97.3598 85.2375 97.9634C83.6595 98.567 82.2377 99.5179 81.0772 100.746C79.9168 101.973 79.0474 103.447 78.5336 105.056C78.0198 106.665 77.8748 108.37 78.1091 110.043L111.382 366.247C111.923 370.028 113.857 373.472 116.806 375.901C119.754 378.331 123.503 379.572 127.318 379.381Z" fill="#63737A"/>
<path d="M134.323 379.381L389.126 365.196C390.66 365.125 392.163 364.742 393.543 364.07C394.923 363.397 396.151 362.45 397.152 361.285C398.152 360.121 398.904 358.764 399.361 357.298C399.818 355.832 399.97 354.289 399.809 352.762L378.093 130.182C377.747 126.617 376.15 123.29 373.586 120.79C371.022 118.29 367.656 116.778 364.084 116.522L97.0222 96.0328C95.3339 95.9048 93.6382 96.1521 92.0568 96.757C90.4754 97.362 89.0475 98.3095 87.8756 99.5315C86.7038 100.754 85.817 102.22 85.2789 103.825C84.7409 105.431 84.5649 107.135 84.7636 108.817L118.212 366.246C118.847 370.018 120.831 373.429 123.796 375.846C126.76 378.262 130.501 379.519 134.323 379.381Z" fill="#22272E"/>
<path d="M139.051 269.579L142.728 298.474L178.804 297.774L175.476 269.404L139.051 269.579Z" fill="#ABACEC"/>
<path d="M211.552 269.229L214.88 297.073L251.655 296.548L248.678 269.229H211.552Z" fill="#E95838"/>
<path d="M178.805 297.774L182.307 325.968L218.207 324.743L214.88 297.073L178.805 297.774Z" fill="#95DCBA"/>
<path d="M323.631 144.016L353.577 145.767C354.086 145.763 354.573 145.558 354.934 145.198C355.294 144.838 355.498 144.351 355.503 143.841L354.978 138.762C354.87 138.058 354.54 137.406 354.036 136.902C353.532 136.398 352.88 136.068 352.176 135.961L322.055 134.034C321.795 134.007 321.532 134.037 321.286 134.125C321.04 134.212 320.816 134.353 320.631 134.537C320.447 134.722 320.306 134.946 320.219 135.192C320.132 135.438 320.101 135.701 320.128 135.961L320.654 141.214C320.77 141.945 321.126 142.616 321.664 143.123C322.203 143.63 322.895 143.944 323.631 144.016Z" fill="#63737A"/>
<path d="M304.718 204.433L357.604 206.009C358.118 206.012 358.627 205.906 359.098 205.7C359.568 205.494 359.991 205.191 360.337 204.812C360.684 204.432 360.947 203.984 361.109 203.497C361.272 203.009 361.331 202.493 361.282 201.982L358.48 174.312C358.366 173.16 357.844 172.087 357.01 171.285C356.175 170.482 355.082 170.004 353.927 169.934L300.69 167.307C300.168 167.275 299.645 167.36 299.16 167.557C298.675 167.753 298.24 168.055 297.888 168.442C297.535 168.828 297.273 169.288 297.122 169.789C296.97 170.29 296.933 170.818 297.012 171.335L300.164 200.055C300.25 201.218 300.762 202.308 301.603 203.116C302.443 203.924 303.552 204.393 304.718 204.433Z" fill="#95DCBA"/>
<path d="M223.11 201.982L281.075 203.733C281.589 203.735 282.098 203.63 282.568 203.424C283.039 203.217 283.461 202.915 283.808 202.535C284.154 202.156 284.417 201.708 284.58 201.22C284.743 200.733 284.802 200.217 284.753 199.705L281.601 170.46C281.486 169.308 280.965 168.235 280.13 167.432C279.296 166.63 278.203 166.151 277.047 166.082L218.557 163.28C218.034 163.248 217.512 163.333 217.027 163.529C216.542 163.725 216.107 164.028 215.754 164.414C215.402 164.8 215.14 165.261 214.988 165.762C214.837 166.262 214.8 166.791 214.879 167.308L218.381 197.604C218.535 198.771 219.092 199.847 219.955 200.646C220.819 201.446 221.935 201.918 223.11 201.982Z" fill="#ABACEC"/>
<path d="M134.323 199.355L198.243 201.281C198.761 201.298 199.276 201.202 199.753 201.001C200.231 200.799 200.659 200.497 201.008 200.114C201.358 199.731 201.62 199.277 201.778 198.784C201.935 198.29 201.984 197.768 201.92 197.254L198.243 166.432C198.099 165.292 197.568 164.235 196.74 163.439C195.911 162.642 194.835 162.153 193.689 162.054L129.42 158.902C128.897 158.87 128.375 158.955 127.89 159.151C127.405 159.347 126.97 159.65 126.617 160.036C126.265 160.422 126.003 160.883 125.851 161.384C125.7 161.884 125.663 162.413 125.742 162.93L129.77 194.977C129.884 196.129 130.406 197.202 131.24 198.005C132.075 198.807 133.167 199.286 134.323 199.355Z" fill="#E95838"/>
<path d="M291.232 350.135L158.49 356.089C156.178 356.154 153.922 355.37 152.148 353.886C150.374 352.402 149.203 350.321 148.858 348.034L134.148 232.103C133.972 230.794 134.083 229.462 134.473 228.201C134.862 226.939 135.521 225.776 136.403 224.794C137.286 223.812 138.371 223.032 139.584 222.51C140.797 221.988 142.109 221.736 143.429 221.77L279.149 224.397C281.4 224.455 283.556 225.316 285.226 226.826C286.897 228.336 287.972 230.394 288.255 232.628L299.989 339.978C300.121 341.228 299.996 342.491 299.622 343.691C299.247 344.89 298.63 346 297.81 346.952C296.989 347.904 295.982 348.678 294.851 349.225C293.72 349.773 292.488 350.082 291.232 350.135Z" stroke="#63737A" stroke-width="3.1522" stroke-linecap="round" stroke-linejoin="round"/>
<path d="M289.481 242.085L135.374 240.509" stroke="#63737A" stroke-width="3.1522" stroke-linecap="round" stroke-linejoin="round"/>
<path d="M245.525 242.785L257.959 351.536" stroke="#63737A" stroke-width="3.1522" stroke-linecap="round" stroke-linejoin="round"/>
<path d="M208.4 242.435L221.534 353.287" stroke="#63737A" stroke-width="3.1522" stroke-linecap="round" stroke-linejoin="round"/>
<path d="M172.149 242.26L185.809 354.864" stroke="#63737A" stroke-width="3.1522" stroke-linecap="round" stroke-linejoin="round"/>
<path d="M248.503 269.229L139.052 269.579" stroke="#63737A" stroke-width="3.1522" stroke-linecap="round" stroke-linejoin="round"/>
<path d="M251.655 296.548L142.729 298.474" stroke="#63737A" stroke-width="3.1522" stroke-linecap="round" stroke-linejoin="round"/>
<path d="M254.808 323.692L146.407 327.019" stroke="#63737A" stroke-width="3.1522" stroke-linecap="round" stroke-linejoin="round"/>
<path d="M133.273 126.854C133.394 127.982 133.864 129.044 134.617 129.891C135.371 130.739 136.37 131.33 137.476 131.583C139.577 131.758 140.978 129.831 140.628 127.38C140.507 126.252 140.037 125.19 139.283 124.343C138.53 123.495 137.531 122.904 136.425 122.651C135.917 122.657 135.417 122.779 134.964 123.008C134.511 123.238 134.117 123.569 133.812 123.975C133.507 124.381 133.3 124.853 133.207 125.352C133.113 125.851 133.136 126.365 133.273 126.854Z" fill="#63737A"/>
<path d="M150.435 128.08C150.498 129.209 150.952 130.281 151.719 131.112C152.485 131.942 153.518 132.48 154.638 132.633C156.739 132.808 158.14 130.882 157.79 128.43C157.727 127.301 157.273 126.229 156.507 125.399C155.74 124.568 154.707 124.03 153.587 123.877C151.486 123.702 150.085 125.628 150.435 128.08Z" fill="#63737A"/>
<path d="M167.246 129.131C167.34 130.249 167.805 131.304 168.566 132.129C169.327 132.954 170.342 133.501 171.449 133.684C173.376 133.859 174.777 131.933 174.601 129.656C174.507 128.538 174.043 127.483 173.282 126.658C172.52 125.833 171.506 125.286 170.399 125.103C168.297 124.753 167.071 126.679 167.246 129.131Z" fill="#63737A"/>
</svg>
