<svg width="512" height="136" viewBox="0 0 512 136" fill="none" xmlns="http://www.w3.org/2000/svg">
<g clip-path="url(#clip0_1_2)">
<path d="M459.01 0C434.448 0 414.428 19.851 414.428 44.582V82.939C414.428 97.407 421.325 110.362 431.924 118.437C440.168 129.204 452.954 136.101 467.422 136.101C492.153 136.101 512.004 116.082 512.004 91.351V52.994C512.004 38.526 505.275 25.571 494.508 17.496C486.433 6.729 473.478 0 459.01 0ZM0 2.34998V125.16L8.41211 133.572H87.1461V99.0841L78.734 90.672H42.9V10.772L34.4879 2.35989L0 2.34998ZM146.17 2.34998C112.186 2.34998 84.764 29.773 84.764 63.756C84.764 82.767 93.512 99.926 107.139 111.197C118.411 124.824 135.572 133.572 154.582 133.572C188.566 133.572 215.988 105.981 215.988 72.166C215.988 53.155 207.24 35.996 193.613 24.725C182.341 11.098 165.18 2.34998 146.17 2.34998ZM277.71 2.34998C243.726 2.34998 216.306 29.773 216.306 63.756C216.306 82.767 225.054 99.926 238.681 111.197C249.953 124.824 267.112 133.572 286.122 133.572C316.573 133.572 342.649 111.196 346.854 80.746C347.359 77.886 347.528 75.0262 347.528 71.998L339.116 63.5859H287.3V77.3829L295.712 83.7755C290.833 88.1496 284.439 90.672 277.71 90.672C272.495 90.672 267.449 89.1587 263.411 86.4669C260.719 82.4292 259.204 77.3814 259.204 72.1659C259.204 57.3609 271.317 45.2479 286.122 45.2479C291.337 45.2479 296.217 46.7632 300.423 49.4549C301.6 51.1373 302.441 52.9869 303.282 55.0057L311.694 63.4178H346.854C344.667 47.7718 336.593 34.1458 325.153 24.7248C313.713 10.9298 296.552 2.34998 277.71 2.34998ZM348.866 2.34998V36.838L357.276 45.2482H362.493V125.16L370.905 133.572H405.391V10.7723L396.981 2.3602L348.866 2.34998ZM458.996 2.51794C482.212 2.51794 501.055 21.36 501.055 44.577V82.934C501.055 106.319 482.213 125.161 458.996 125.161C435.78 125.161 416.937 106.319 416.937 82.934V44.577C416.937 21.361 435.779 2.51794 458.996 2.51794ZM2.51599 4.87344H31.957V93.1955H76.203V122.636H2.51501L2.51599 4.87344ZM146.166 4.87344C178.635 4.87344 205.049 31.2865 205.049 63.7565C205.049 96.2255 178.636 122.637 146.166 122.637C113.697 122.637 87.283 96.2265 87.283 63.7565C87.283 31.2875 113.696 4.87344 146.166 4.87344ZM277.706 4.87344C306.474 4.87344 330.364 25.3965 335.579 52.4825H304.96C300.586 41.8835 289.987 34.3145 277.706 34.3145C261.387 34.3145 248.265 47.4375 248.265 63.7555C248.265 80.0745 261.388 93.1945 277.706 93.1945C289.987 93.1945 300.586 85.6256 304.96 74.8585H289.819V66.1085H336.589C336.421 69.1367 336.084 71.9985 335.411 74.8585H335.579C330.364 102.112 306.474 122.635 277.706 122.635C245.237 122.635 218.825 96.2245 218.825 63.7545C218.825 31.2855 245.236 4.87146 277.706 4.87146L277.706 4.87344ZM351.386 4.87344H394.454V122.633H365.013V34.3115H351.386V4.87344ZM458.996 31.9595C452.098 31.9595 446.379 37.5107 446.379 44.5764V82.9335C446.379 89.9994 452.098 95.7184 458.996 95.7184C466.062 95.7184 471.613 89.9992 471.613 82.9335V44.5764C471.613 37.5105 466.062 31.9595 458.996 31.9595ZM146.166 34.315C129.847 34.315 116.725 47.438 116.725 63.756C116.725 80.075 129.848 93.1949 146.166 93.1949C162.485 93.1949 175.607 80.074 175.607 63.756C175.607 47.437 162.484 34.315 146.166 34.315ZM467.416 42.8951H469.098V82.9341C469.098 88.6541 464.724 93.196 459.004 93.196C458.499 93.196 457.995 93.0281 457.49 93.0281L457.322 91.3465V52.9895C457.322 47.2695 461.864 42.8951 467.416 42.8951ZM154.586 45.2486C159.801 45.2486 164.849 46.7639 168.887 49.4556C171.579 53.4932 173.092 58.5411 173.092 63.7566C173.092 78.5616 160.979 90.6725 146.174 90.6725C140.959 90.6725 135.911 89.1593 131.873 86.4675C129.181 82.4298 127.668 77.3819 127.668 72.1664C127.668 57.3614 139.781 45.2486 154.586 45.2486Z" fill="#E93F38"/>
</g>
<defs>
<clipPath id="clip0_1_2">
<rect width="512" height="136" fill="white"/>
</clipPath>
</defs>
</svg>
