<?xml version="1.0" encoding="UTF-8" standalone="no"?>
<svg
   xmlns:dc="http://purl.org/dc/elements/1.1/"
   xmlns:cc="http://creativecommons.org/ns#"
   xmlns:rdf="http://www.w3.org/1999/02/22-rdf-syntax-ns#"
   xmlns:svg="http://www.w3.org/2000/svg"
   xmlns="http://www.w3.org/2000/svg"
   xml:space="preserve"
   enable-background="new 0 0 200 200"
   viewBox="0 0 200 200"
   y="0px"
   x="0px"
   id="Layer_1"
   version="1.1"><metadata
     id="metadata17"><rdf:RDF><cc:Work
         rdf:about=""><dc:format>image/svg+xml</dc:format><dc:type
           rdf:resource="http://purl.org/dc/dcmitype/StillImage" /></cc:Work></rdf:RDF></metadata><defs
     id="defs15" /><circle
     id="circle2"
     fill="#e93f38"
     r="77.8"
     cy="100"
     cx="100" /><g
     id="g10"
     transform="matrix(0.15,0,0,0.15,23.2,42.4)"><g
       style="fill:#f9f9f9;stroke-width:0;stroke-miterlimit:2"
       transform="matrix(1.1683,0,0,1.1683,-86.17,-64.628)"
       stroke-miterlimit="2"
       id="logo-group"><path
         d="m 367.47,440.09 v -29.52 l -7.2,-7.2 h -30.672 v -68.4 l -7.2,-7.2 h -29.52 v 105.12 l 7.2,7.2 z m -72.432,-9.36 v -100.8 h 25.2 v 75.6 h 37.872 v 25.2 z"
         style="font-variant-ligatures:normal"
         id="path88081" /><path
         d="m 425.19,440.09 c 29.088,0 52.56,-23.616 52.56,-52.56 0,-16.272 -7.488,-30.96 -19.152,-40.608 -9.648,-11.664 -24.336,-19.152 -40.608,-19.152 -29.088,0 -52.56,23.472 -52.56,52.56 0,16.272 7.488,30.96 19.152,40.608 9.648,11.664 24.336,19.152 40.608,19.152 z m -7.2,-9.36 c -27.792,0 -50.4,-22.608 -50.4,-50.4 0,-27.792 22.608,-50.4 50.4,-50.4 27.792,0 50.4,22.608 50.4,50.4 0,27.792 -22.608,50.4 -50.4,50.4 z m 0,-25.2 c 13.968,0 25.2,-11.232 25.2,-25.2 0,-13.968 -11.232,-25.2 -25.2,-25.2 -13.968,0 -25.2,11.232 -25.2,25.2 0,13.968 11.232,25.2 25.2,25.2 z m 0,-2.16 c -4.464,0 -8.784,-1.296 -12.24,-3.6 -2.304,-3.456 -3.6,-7.776 -3.6,-12.24 0,-12.672 10.368,-23.04 23.04,-23.04 4.464,0 8.784,1.296 12.24,3.6 2.304,3.456 3.6,7.776 3.6,12.24 0,12.672 -10.368,23.04 -23.04,23.04 z"
         style="font-variant-ligatures:normal"
         id="path88083" /><path
         d="m 537.79,440.09 c 26.064,0 48.384,-19.152 51.984,-45.216 0.432,-2.448 0.576,-4.896 0.576,-7.488 l -7.2,-7.2 h -44.352 v 11.808 l 7.2,5.472 c -4.176,3.744 -9.648,5.904 -15.408,5.904 -4.464,0 -8.784,-1.296 -12.24,-3.6 -2.304,-3.456 -3.6,-7.776 -3.6,-12.24 0,-12.672 10.368,-23.04 23.04,-23.04 4.464,0 8.64,1.296 12.24,3.6 1.008,1.44 1.728,3.024 2.448,4.752 l 7.2,7.2 h 30.096 c -1.872,-13.392 -8.784,-25.056 -18.576,-33.12 -9.792,-11.808 -24.48,-19.152 -40.608,-19.152 -29.088,0 -52.56,23.472 -52.56,52.56 0,16.272 7.488,30.96 19.152,40.608 9.648,11.664 24.336,19.152 40.608,19.152 z m -7.2,-9.36 c -27.792,0 -50.4,-22.608 -50.4,-50.4 0,-27.792 22.608,-50.4 50.4,-50.4 24.624,0 45.072,17.568 49.536,40.752 h -26.208 c -3.744,-9.072 -12.816,-15.552 -23.328,-15.552 -13.968,0 -25.2,11.232 -25.2,25.2 0,13.968 11.232,25.2 25.2,25.2 10.512,0 19.584,-6.48 23.328,-15.696 h -12.96 v -7.488 h 40.032 c -0.144,2.592 -0.432,5.04 -1.008,7.488 h 0.144 c -4.464,23.328 -24.912,40.896 -49.536,40.896 z"
         style="font-variant-ligatures:normal"
         id="path88085" /><path
         d="m 610.36,440.09 h 29.52 V 334.97 l -7.2,-7.2 h -41.184 v 29.52 l 7.2,7.2 h 4.464 v 68.4 z m -5.04,-9.36 v -75.6 h -11.664 v -25.2 h 36.864 v 100.8 z"
         style="font-variant-ligatures:normal"
         id="path88087" /><path
         d="m 692.96,442.25 c 21.168,0 38.16,-17.136 38.16,-38.304 v -32.832 c 0,-12.384 -5.76,-23.472 -14.976,-30.384 -6.912,-9.216 -18,-14.976 -30.384,-14.976 -21.024,0 -38.16,16.992 -38.16,38.16 v 32.832 c 0,12.384 5.904,23.472 14.976,30.384 7.056,9.216 18,15.12 30.384,15.12 z m -7.2,-9.36 c -19.872,0 -36,-16.128 -36,-36.144 v -32.832 c 0,-19.872 16.128,-36 36,-36 19.872,0 36,16.128 36,36 v 32.832 c 0,20.016 -16.128,36.144 -36,36.144 z m 0,-25.2 c 6.048,0 10.8,-4.896 10.8,-10.944 v -32.832 c 0,-6.048 -4.752,-10.8 -10.8,-10.8 -5.904,0 -10.8,4.752 -10.8,10.8 v 32.832 c 0,6.048 4.896,10.944 10.8,10.944 z m 0,-2.16 c -0.432,0 -0.864,-0.144 -1.296,-0.144 l -0.144,-1.44 v -32.832 c 0,-4.896 3.888,-8.64 8.64,-8.64 h 1.44 v 34.272 c 0,4.896 -3.744,8.784 -8.64,8.784 z"
         style="font-variant-ligatures:normal"
         id="path88089" /></g></g></svg>