<?xml version="1.0" standalone="no"?>
<!DOCTYPE svg PUBLIC "-//W3C//DTD SVG 20010904//EN"
 "http://www.w3.org/TR/2001/REC-SVG-20010904/DTD/svg10.dtd">
<svg version="1.0" xmlns="http://www.w3.org/2000/svg"
 width="700.000000pt" height="700.000000pt" viewBox="0 0 700.000000 700.000000"
 preserveAspectRatio="xMidYMid meet">
<metadata>
Created by potrace 1.14, written by Peter Selinger 2001-2017
</metadata>
<g transform="translate(0.000000,700.000000) scale(0.100000,-0.100000)"
fill="#000000" stroke="none">
<path d="M3447 6224 c-1 -1 -56 -4 -122 -8 -66 -3 -131 -8 -145 -10 -14 -3
-43 -7 -65 -11 -355 -52 -639 -150 -984 -341 -77 -42 -262 -172 -356 -250
-272 -224 -487 -480 -653 -779 -64 -115 -162 -325 -162 -348 0 -7 -4 -17 -9
-22 -29 -33 -129 -419 -146 -565 -3 -30 -8 -66 -10 -80 -17 -105 -22 -369 -10
-520 6 -83 31 -270 40 -300 2 -8 7 -31 10 -50 27 -163 151 -518 237 -674 49
-91 65 -119 96 -171 36 -61 138 -211 156 -231 6 -7 20 -24 31 -40 94 -132 329
-364 495 -489 36 -27 82 -61 102 -77 20 -15 39 -28 42 -28 3 0 24 -13 48 -29
302 -203 739 -358 1153 -407 102 -12 125 -13 295 -13 247 0 334 8 545 50 642
127 1229 492 1624 1013 227 298 384 616 477 971 10 38 44 197 49 230 3 22 10
67 15 100 15 105 22 216 21 360 -1 354 -61 669 -189 995 -45 116 -171 372
-198 401 -8 8 -14 19 -14 22 0 13 -133 202 -206 292 -111 139 -279 306 -409
408 -33 26 -66 52 -73 58 -67 56 -298 195 -427 259 -135 66 -318 142 -375 156
-8 2 -55 15 -105 29 -98 28 -266 62 -348 71 -29 3 -58 7 -64 9 -21 7 -359 24
-366 19z"/>
</g>
</svg>
